<?xml version="1.0" standalone="no"?>
<!DOCTYPE svg PUBLIC "-//W3C//DTD SVG 1.1//EN" "http://www.w3.org/Graphics/SVG/1.1/DTD/svg11.dtd">
<svg xmlns="http://www.w3.org/2000/svg" xmlns:xlink="http://www.w3.org/1999/xlink" version="1.1" id="Camada_1" x="0px" y="0px" viewBox="0 0 600 325.1" style="enable-background:new 0 0 600 325.1;" xml:space="preserve" width="600" height="325.1000061035156">
<style type="text/css">
	.st0{display:none;}
	.st1{display:inline;fill:#2BBADA;}
	.st2{display:inline;fill:#8065A9;}
	.st3{display:inline;fill:none;stroke:#2BBADA;stroke-width:3;stroke-linecap:round;stroke-linejoin:round;stroke-miterlimit:10;}
	.st4{display:inline;fill:none;stroke:#8065A9;stroke-width:3;stroke-linecap:round;stroke-linejoin:round;stroke-miterlimit:10;}
	.st5{display:inline;fill:none;stroke:#2BBADA;stroke-width:5;stroke-linecap:round;stroke-linejoin:round;stroke-miterlimit:10;}
	.st6{display:inline;fill:none;stroke:#D60D39;stroke-width:5;stroke-linecap:round;stroke-linejoin:round;stroke-miterlimit:10;}
	.st7{display:inline;fill:none;stroke:#F28F32;stroke-width:5;stroke-linecap:round;stroke-linejoin:round;stroke-miterlimit:10;}
	.st8{display:inline;fill:none;stroke:#8065A9;stroke-width:5;stroke-linecap:round;stroke-linejoin:round;stroke-miterlimit:10;}
	.st9{display:inline;fill:none;stroke:#F7B535;stroke-width:5;stroke-linecap:round;stroke-linejoin:round;stroke-miterlimit:10;}
	.st10{display:inline;}
	.st11{fill:#D50037;}
	.st12{fill:none;}
	.st13{fill-rule:evenodd;clip-rule:evenodd;}
	.st14{fill-rule:evenodd;clip-rule:evenodd;fill:#D50037;}
	.st15{fill:#2A343E;}
	.st16{fill:#2BBADA;}
	.st17{fill:#8065A9;}
	.st18{fill:#F7B535;}
	.st19{fill:#F28F32;}
	.st20{fill:#D60D39;}
	.st21{fill:#D40E3A;}
	.st22{fill-rule:evenodd;clip-rule:evenodd;fill:#2A343E;}
	.st23{fill:#243746;}
	.st24{enable-background:new    ;}
	.st25{fill:#2CB9D9;}
	.st26{fill:#8067A9;}
	.st27{stroke:#2A343E;stroke-width:2;stroke-miterlimit:10;}
	.st28{fill:none;stroke:#2A343E;stroke-width:2;stroke-linecap:round;stroke-linejoin:round;stroke-miterlimit:10;}
	.st29{fill:#FFFFFF;}
	.st30{stroke:#000000;stroke-width:2;stroke-miterlimit:10;}
	.st31{fill:none;stroke:#000000;stroke-width:2;stroke-linecap:round;stroke-linejoin:round;stroke-miterlimit:10;}
	.st32{fill:#76BD22;}
</style>
<g class="st0">
	<path class="st5" d="M370.7,28.3c26.9,0,48.7,21.8,48.7,48.7"/>
	<path class="st6" d="M542.8,112.3c19.2,18.8,19.5,49.6,0.7,68.8"/>
	<path class="st7" d="M576.3,281.8c0.3,26.9-21.3,48.9-48.2,49.1"/>
	<path class="st5" d="M149.5,371.4c-0.1-26.9,21.6-48.7,48.5-48.8"/>
	<path class="st9" d="M23.8,261c-19.1-18.9-19.2-49.7-0.3-68.8"/>
	<path class="st8" d="M12.3,140.7C12,113.8,33.5,91.8,60.4,91.5"/>
</g>
<g class="st0">
	<g class="st10">
		<g>
			<path class="st11" d="M256.9,242.5L256.9,242.5C256.9,242.5,256.9,242.4,256.9,242.5c0-0.1,0-0.1-0.1-0.2c0,0,0,0-0.1,0     s-0.1,0-0.3,0c-0.4,0-2.3,0-2.8,0l0,0c-0.2,0-0.3,0.1-0.3,0.4c-0.1,0.6-3.4,12.5-3.4,12.5h2.4l0,0c0.7,0,1.2-0.6,1.5-1.3     c0.1-0.2,0.7-2.4,1.3-4.8c0.7-2.7,1.6-5.6,1.7-6.2c0-0.1,0-0.1,0-0.2C256.9,242.6,256.9,242.6,256.9,242.5L256.9,242.5"/>
		</g>
		<g>
			<path class="st11" d="M249.9,242.5L249.9,242.5C249.9,242.5,249.9,242.4,249.9,242.5c0-0.1,0-0.1-0.1-0.2l0,0c0,0,0,0-0.1,0l0,0     h-0.1l0,0h-0.1l0,0c-0.1,0-0.1,0-0.2,0c-0.6,0-2.1,0-2.5,0l0,0l0,0c-0.2,0-0.3,0.1-0.3,0.4c-0.1,0.6-3.4,12.5-3.4,12.5h2.4l0,0     c0.7,0,1.2-0.6,1.5-1.3c0.1-0.2,0.7-2.4,1.3-4.8l0,0c0.7-2.7,1.6-5.6,1.7-6.2c0-0.1,0-0.1,0-0.2     C249.9,242.6,249.9,242.6,249.9,242.5L249.9,242.5"/>
		</g>
		<g>
			<path class="st11" d="M249.9,260.5c-6.5,0-11.8-5.3-11.8-11.8s5.3-11.8,11.8-11.8s11.8,5.3,11.8,11.8     C261.7,255.2,256.4,260.5,249.9,260.5z M249.9,238.1c-5.9,0-10.6,4.8-10.6,10.6c0,5.9,4.8,10.6,10.6,10.6     c5.9,0,10.6-4.8,10.6-10.6C260.5,242.9,255.8,238.1,249.9,238.1z"/>
		</g>
		<g>
			
				<rect x="251.6" y="234" transform="matrix(0.2606 -0.9655 0.9655 0.2606 -37.6127 420.0382)" class="st11" width="7.6" height="1.1"/>
		</g>
		<g>
			<ellipse transform="matrix(0.6 -0.8 0.8 0.6 -82.1522 297.4946)" class="st11" cx="256.4" cy="230.9" rx="3.2" ry="3.2"/>
		</g>
		<g>
			<circle class="st11" cx="245.4" cy="267.7" r="2.4"/>
		</g>
		<g>
			<circle class="st11" cx="234.6" cy="243" r="2.8"/>
		</g>
		<g>
			<line class="st12" x1="239.6" y1="244.8" x2="232" y2="242.1"/>
			
				<rect x="235.3" y="239.5" transform="matrix(0.3428 -0.9394 0.9394 0.3428 -73.8505 381.5321)" class="st11" width="0.9" height="8"/>
		</g>
		<g>
			<rect x="261.1" y="248.3" class="st11" width="6.3" height="0.9"/>
		</g>
		<g>
			<line class="st12" x1="247.6" y1="259.5" x2="245.8" y2="265.7"/>
			
				<rect x="243.4" y="262.1" transform="matrix(0.2661 -0.9639 0.9639 0.2661 -72.0919 430.3866)" class="st11" width="6.5" height="0.9"/>
		</g>
		<g>
			<circle class="st11" cx="267.4" cy="248.7" r="1.2"/>
		</g>
	</g>
	<g class="st10">
		<path d="M275.3,237.9c0.7,0,1.2,0.1,1.6,0.4c0.4,0.3,0.6,0.7,0.6,1.2c0,0.3-0.1,0.5-0.2,0.7s-0.3,0.4-0.4,0.5    c-0.2,0.1-0.4,0.2-0.7,0.3c-0.3,0.1-0.6,0.1-0.9,0.1h-0.6v1.9H274v-5c0.2,0,0.4-0.1,0.7-0.1C274.9,237.9,275.1,237.9,275.3,237.9z     M275.4,238.5c-0.3,0-0.5,0-0.7,0v2h0.5c0.2,0,0.5,0,0.6,0c0.2,0,0.4-0.1,0.5-0.2c0.1-0.1,0.2-0.2,0.3-0.3    c0.1-0.1,0.1-0.3,0.1-0.5s0-0.4-0.1-0.5s-0.2-0.2-0.3-0.3c-0.1-0.1-0.3-0.1-0.4-0.2C275.7,238.5,275.6,238.5,275.4,238.5z"/>
		<path d="M280.8,240.9c0.1,0.1,0.2,0.2,0.3,0.4c0.1,0.2,0.2,0.3,0.4,0.5c0.1,0.2,0.2,0.4,0.4,0.6c0.1,0.2,0.2,0.4,0.3,0.6h-0.8    c-0.1-0.2-0.2-0.4-0.3-0.6c-0.1-0.2-0.2-0.4-0.3-0.5c-0.1-0.2-0.2-0.3-0.3-0.5c-0.1-0.1-0.2-0.3-0.3-0.4c-0.1,0-0.1,0-0.2,0    s-0.1,0-0.2,0h-0.6v2h-0.7v-5c0.2,0,0.4-0.1,0.7-0.1c0.2,0,0.5,0,0.7,0c0.7,0,1.2,0.1,1.6,0.4c0.4,0.3,0.6,0.7,0.6,1.2    c0,0.3-0.1,0.6-0.3,0.9C281.4,240.6,281.2,240.8,280.8,240.9z M279.8,238.5c-0.3,0-0.5,0-0.7,0v1.9h0.5c0.2,0,0.5,0,0.6,0    c0.2,0,0.4-0.1,0.5-0.1c0.1-0.1,0.2-0.2,0.3-0.3s0.1-0.3,0.1-0.5s0-0.3-0.1-0.5c-0.1-0.1-0.2-0.2-0.3-0.3    c-0.1-0.1-0.3-0.1-0.4-0.2C280.1,238.5,279.9,238.5,279.8,238.5z"/>
		<path d="M282.6,240.5c0-0.4,0.1-0.8,0.2-1.1s0.3-0.6,0.5-0.8s0.5-0.4,0.8-0.5s0.6-0.2,0.9-0.2s0.6,0.1,0.9,0.2    c0.3,0.1,0.5,0.3,0.8,0.5c0.2,0.2,0.4,0.5,0.5,0.8s0.2,0.7,0.2,1.1c0,0.4-0.1,0.8-0.2,1.1s-0.3,0.6-0.5,0.8s-0.5,0.4-0.8,0.5    s-0.6,0.2-0.9,0.2s-0.6-0.1-0.9-0.2c-0.3-0.1-0.5-0.3-0.8-0.5s-0.4-0.5-0.5-0.8S282.6,240.9,282.6,240.5z M283.4,240.5    c0,0.3,0,0.6,0.1,0.8s0.2,0.5,0.3,0.6c0.1,0.2,0.3,0.3,0.5,0.4c0.2,0.1,0.4,0.1,0.7,0.1c0.3,0,0.5,0,0.7-0.1s0.4-0.2,0.5-0.4    s0.3-0.4,0.3-0.6c0.1-0.2,0.1-0.5,0.1-0.8s0-0.6-0.1-0.8s-0.2-0.5-0.3-0.6c-0.1-0.2-0.3-0.3-0.5-0.4c-0.2-0.1-0.4-0.1-0.7-0.1    c-0.3,0-0.5,0-0.7,0.1s-0.4,0.2-0.5,0.4s-0.3,0.4-0.3,0.6C283.4,239.9,283.4,240.2,283.4,240.5z"/>
		<path d="M291.5,240.5h0.7v2.3c-0.1,0-0.1,0-0.2,0.1c-0.1,0-0.2,0-0.4,0.1c-0.1,0-0.3,0-0.5,0.1c-0.2,0-0.3,0-0.5,0    c-0.4,0-0.7-0.1-1-0.2c-0.3-0.1-0.5-0.3-0.7-0.5s-0.4-0.5-0.5-0.8s-0.2-0.7-0.2-1.1c0-0.4,0.1-0.8,0.2-1.1s0.3-0.6,0.5-0.8    s0.5-0.4,0.8-0.5s0.6-0.2,0.9-0.2c0.2,0,0.4,0,0.6,0s0.3,0.1,0.5,0.1c0.1,0,0.2,0.1,0.3,0.1c0.1,0,0.1,0.1,0.2,0.1l-0.2,0.6    c-0.1-0.1-0.3-0.2-0.6-0.2c-0.2-0.1-0.5-0.1-0.7-0.1c-0.3,0-0.5,0-0.7,0.1s-0.4,0.2-0.5,0.4s-0.3,0.4-0.3,0.6    c-0.1,0.2-0.1,0.5-0.1,0.8s0,0.6,0.1,0.8s0.2,0.5,0.3,0.6c0.1,0.2,0.3,0.3,0.5,0.4c0.2,0.1,0.5,0.1,0.7,0.1s0.4,0,0.5,0    s0.2,0,0.3-0.1L291.5,240.5L291.5,240.5z"/>
		<path d="M295.8,240.9c0.1,0.1,0.2,0.2,0.3,0.4c0.1,0.2,0.2,0.3,0.4,0.5c0.1,0.2,0.2,0.4,0.4,0.6c0.1,0.2,0.2,0.4,0.3,0.6h-0.8    c-0.1-0.2-0.2-0.4-0.3-0.6c-0.1-0.2-0.2-0.4-0.3-0.5c-0.1-0.2-0.2-0.3-0.3-0.5c-0.1-0.1-0.2-0.3-0.3-0.4c-0.1,0-0.1,0-0.2,0    s-0.1,0-0.2,0H294v2h-0.7v-5c0.2,0,0.4-0.1,0.7-0.1c0.2,0,0.5,0,0.7,0c0.7,0,1.2,0.1,1.6,0.4c0.4,0.3,0.6,0.7,0.6,1.2    c0,0.3-0.1,0.6-0.3,0.9C296.4,240.6,296.1,240.8,295.8,240.9z M294.7,238.5c-0.3,0-0.5,0-0.7,0v1.9h0.5c0.2,0,0.5,0,0.6,0    c0.2,0,0.4-0.1,0.5-0.1c0.1-0.1,0.2-0.2,0.3-0.3s0.1-0.3,0.1-0.5s0-0.3-0.1-0.5c-0.1-0.1-0.2-0.2-0.3-0.3    c-0.1-0.1-0.3-0.1-0.4-0.2C295.1,238.5,294.9,238.5,294.7,238.5z"/>
		<path d="M301.4,243c-0.1-0.2-0.2-0.4-0.2-0.6c-0.1-0.2-0.1-0.4-0.2-0.6h-2.3l-0.5,1.3h-0.7c0.2-0.5,0.4-1,0.5-1.5    c0.2-0.5,0.3-0.9,0.5-1.3c0.2-0.4,0.3-0.8,0.5-1.2s0.3-0.7,0.5-1.1h0.6c0.2,0.4,0.3,0.7,0.5,1.1c0.2,0.4,0.3,0.8,0.5,1.2    s0.3,0.8,0.5,1.3s0.3,0.9,0.5,1.5L301.4,243L301.4,243z M300.7,241.1c-0.2-0.4-0.3-0.8-0.5-1.2s-0.3-0.8-0.5-1.1    c-0.2,0.4-0.3,0.7-0.5,1.1c-0.2,0.4-0.3,0.8-0.5,1.2H300.7z"/>
		<path d="M305.1,242.3c0-0.1-0.1-0.3-0.2-0.4c-0.1-0.2-0.2-0.4-0.3-0.6c-0.1-0.2-0.2-0.4-0.3-0.6c-0.1-0.2-0.2-0.4-0.3-0.6    c-0.1-0.2-0.2-0.4-0.3-0.5c-0.1-0.2-0.1-0.3-0.2-0.4c-0.1,0.6-0.1,1.2-0.1,1.8c0,0.7-0.1,1.3-0.1,2h-0.7c0-0.4,0-0.9,0.1-1.3    c0-0.4,0.1-0.9,0.1-1.3s0.1-0.8,0.1-1.2s0.1-0.8,0.1-1.1h0.6c0.1,0.2,0.3,0.5,0.4,0.8s0.3,0.6,0.4,0.9c0.1,0.3,0.3,0.6,0.4,0.9    c0.1,0.3,0.3,0.6,0.4,0.9c0.1-0.3,0.2-0.5,0.4-0.9c0.1-0.3,0.3-0.6,0.4-0.9c0.1-0.3,0.3-0.6,0.4-0.9s0.3-0.5,0.4-0.8h0.6    c0.2,1.6,0.3,3.3,0.4,5h-0.7c0-0.7-0.1-1.3-0.1-2s-0.1-1.3-0.1-1.8c0,0.1-0.1,0.2-0.2,0.4s-0.2,0.3-0.3,0.5    c-0.1,0.2-0.2,0.4-0.3,0.6c-0.1,0.2-0.2,0.4-0.3,0.6c-0.1,0.2-0.2,0.4-0.3,0.6c-0.1,0.2-0.1,0.3-0.2,0.4L305.1,242.3L305.1,242.3z    "/>
		<path d="M312.5,243c-0.1-0.2-0.2-0.4-0.2-0.6c-0.1-0.2-0.1-0.4-0.2-0.6h-2.3l-0.5,1.3h-0.7c0.2-0.5,0.4-1,0.5-1.5    c0.2-0.5,0.3-0.9,0.5-1.3c0.2-0.4,0.3-0.8,0.5-1.2s0.3-0.7,0.5-1.1h0.6c0.2,0.4,0.3,0.7,0.5,1.1c0.2,0.4,0.3,0.8,0.5,1.2    s0.3,0.8,0.5,1.3s0.3,0.9,0.5,1.5L312.5,243L312.5,243z M311.8,241.1c-0.2-0.4-0.3-0.8-0.5-1.2s-0.3-0.8-0.5-1.1    c-0.2,0.4-0.3,0.7-0.5,1.1c-0.2,0.4-0.3,0.8-0.5,1.2H311.8z"/>
		<path d="M319.7,240.5c0,0.4-0.1,0.8-0.2,1.1s-0.3,0.6-0.6,0.8c-0.2,0.2-0.5,0.4-0.9,0.5c-0.3,0.1-0.7,0.2-1.1,0.2    c-0.2,0-0.4,0-0.7,0c-0.2,0-0.5,0-0.7-0.1v-5c0.2,0,0.4-0.1,0.7-0.1c0.2,0,0.5,0,0.7,0c0.4,0,0.8,0.1,1.1,0.2    c0.3,0.1,0.6,0.3,0.9,0.5c0.2,0.2,0.4,0.5,0.6,0.8C319.6,239.6,319.7,240,319.7,240.5z M317,242.4c0.7,0,1.2-0.2,1.5-0.5    s0.5-0.8,0.5-1.4s-0.2-1.1-0.5-1.4c-0.3-0.3-0.8-0.5-1.5-0.5c-0.2,0-0.4,0-0.5,0s-0.2,0-0.2,0v3.8c0,0,0.1,0,0.2,0    C316.6,242.4,316.8,242.4,317,242.4z"/>
		<path d="M320.7,243v-5h3.1v0.6h-2.4v1.5h2.1v0.6h-2.1v1.7h2.5v0.6L320.7,243L320.7,243z"/>
		<path d="M329.9,243c-0.1-0.2-0.2-0.4-0.2-0.6c-0.1-0.2-0.1-0.4-0.2-0.6h-2.3l-0.5,1.3H326c0.2-0.5,0.4-1,0.5-1.5    c0.2-0.5,0.3-0.9,0.5-1.3c0.2-0.4,0.3-0.8,0.5-1.2s0.3-0.7,0.5-1.1h0.6c0.2,0.4,0.3,0.7,0.5,1.1c0.2,0.4,0.3,0.8,0.5,1.2    s0.3,0.8,0.5,1.3s0.3,0.9,0.5,1.5L329.9,243L329.9,243z M329.2,241.1c-0.2-0.4-0.3-0.8-0.5-1.2s-0.3-0.8-0.5-1.1    c-0.2,0.4-0.3,0.7-0.5,1.1c-0.2,0.4-0.3,0.8-0.5,1.2H329.2z"/>
		<path d="M331.3,243v-5h3v0.6H332v1.5h2.1v0.6H332v2.3L331.3,243L331.3,243z"/>
		<path d="M335.2,238h0.7v5h-0.7V238z"/>
		<path d="M340.1,242.4v0.6h-3v-5h0.7v4.4H340.1z"/>
		<path d="M340.9,238h0.7v5h-0.7V238z"/>
		<path d="M346.2,243c-0.1-0.2-0.2-0.4-0.2-0.6c-0.1-0.2-0.1-0.4-0.2-0.6h-2.3L343,243h-0.7c0.2-0.5,0.4-1,0.5-1.5    c0.2-0.5,0.3-0.9,0.5-1.3c0.2-0.4,0.3-0.8,0.5-1.2s0.3-0.7,0.5-1.1h0.6c0.2,0.4,0.3,0.7,0.5,1.1c0.2,0.4,0.3,0.8,0.5,1.2    s0.3,0.8,0.5,1.3s0.3,0.9,0.5,1.5H346.2z M345.5,241.1c-0.2-0.4-0.3-0.8-0.5-1.2s-0.3-0.8-0.5-1.1c-0.2,0.4-0.3,0.7-0.5,1.1    c-0.2,0.4-0.3,0.8-0.5,1.2H345.5z"/>
		<path d="M351.7,240.5c0,0.4-0.1,0.8-0.2,1.1s-0.3,0.6-0.6,0.8c-0.2,0.2-0.5,0.4-0.9,0.5c-0.3,0.1-0.7,0.2-1.1,0.2    c-0.2,0-0.4,0-0.7,0c-0.2,0-0.5,0-0.7-0.1v-5c0.2,0,0.4-0.1,0.7-0.1c0.2,0,0.5,0,0.7,0c0.4,0,0.8,0.1,1.1,0.2    c0.3,0.1,0.6,0.3,0.9,0.5c0.2,0.2,0.4,0.5,0.6,0.8C351.6,239.6,351.7,240,351.7,240.5z M349,242.4c0.7,0,1.2-0.2,1.5-0.5    s0.5-0.8,0.5-1.4s-0.2-1.1-0.5-1.4c-0.3-0.3-0.8-0.5-1.5-0.5c-0.2,0-0.4,0-0.5,0s-0.2,0-0.2,0v3.8c0,0,0.1,0,0.2,0    C348.6,242.4,348.8,242.4,349,242.4z"/>
		<path d="M352.5,240.5c0-0.4,0.1-0.8,0.2-1.1s0.3-0.6,0.5-0.8s0.5-0.4,0.8-0.5s0.6-0.2,0.9-0.2s0.6,0.1,0.9,0.2    c0.3,0.1,0.5,0.3,0.8,0.5s0.4,0.5,0.5,0.8s0.2,0.7,0.2,1.1c0,0.4-0.1,0.8-0.2,1.1s-0.3,0.6-0.5,0.8s-0.5,0.4-0.8,0.5    s-0.6,0.2-0.9,0.2s-0.6-0.1-0.9-0.2c-0.3-0.1-0.5-0.3-0.8-0.5s-0.4-0.5-0.5-0.8S352.5,240.9,352.5,240.5z M353.3,240.5    c0,0.3,0,0.6,0.1,0.8s0.2,0.5,0.3,0.6c0.1,0.2,0.3,0.3,0.5,0.4c0.2,0.1,0.4,0.1,0.7,0.1c0.3,0,0.5,0,0.7-0.1s0.4-0.2,0.5-0.4    s0.3-0.4,0.3-0.6c0.1-0.2,0.1-0.5,0.1-0.8s0-0.6-0.1-0.8s-0.2-0.5-0.3-0.6c-0.1-0.2-0.3-0.3-0.5-0.4c-0.2-0.1-0.4-0.1-0.7-0.1    c-0.3,0-0.5,0-0.7,0.1s-0.4,0.2-0.5,0.4s-0.3,0.4-0.3,0.6C353.3,239.9,353.3,240.2,353.3,240.5z"/>
		<path d="M359.5,242.5c0.7,0,1.1-0.3,1.1-0.8c0-0.2,0-0.3-0.1-0.4c-0.1-0.1-0.2-0.2-0.3-0.3c-0.1-0.1-0.2-0.1-0.4-0.2    c-0.1-0.1-0.3-0.1-0.5-0.2c-0.2-0.1-0.4-0.1-0.5-0.2c-0.2-0.1-0.3-0.2-0.4-0.3s-0.2-0.2-0.3-0.4c-0.1-0.1-0.1-0.3-0.1-0.5    c0-0.4,0.1-0.8,0.4-1s0.7-0.4,1.2-0.4c0.3,0,0.6,0,0.8,0.1c0.2,0.1,0.4,0.1,0.5,0.2l-0.2,0.6c-0.1-0.1-0.3-0.1-0.5-0.2    c-0.2-0.1-0.4-0.1-0.7-0.1c-0.1,0-0.3,0-0.4,0s-0.2,0.1-0.3,0.1c-0.1,0.1-0.2,0.1-0.2,0.2c-0.1,0.1-0.1,0.2-0.1,0.3s0,0.2,0.1,0.3    s0.1,0.2,0.2,0.2c0.1,0.1,0.2,0.1,0.3,0.2c0.1,0.1,0.3,0.1,0.4,0.2c0.2,0.1,0.4,0.2,0.6,0.3s0.3,0.2,0.5,0.3    c0.1,0.1,0.2,0.3,0.3,0.4c0.1,0.2,0.1,0.4,0.1,0.6c0,0.4-0.2,0.8-0.5,1s-0.8,0.4-1.4,0.4c-0.2,0-0.4,0-0.5,0s-0.3-0.1-0.4-0.1    s-0.2-0.1-0.3-0.1c-0.1,0-0.2-0.1-0.2-0.1l0.2-0.6c0.1,0.1,0.3,0.1,0.5,0.2C358.8,242.4,359.1,242.5,359.5,242.5z"/>
	</g>
	<g class="st10">
		<path d="M278.7,257.8c-0.1-0.4-0.3-0.9-0.4-1.3c-0.2-0.4-0.3-0.9-0.5-1.3H273c-0.2,0.4-0.3,0.9-0.5,1.3s-0.3,0.9-0.4,1.3h-2.8    c0.5-1.3,0.9-2.5,1.3-3.6s0.8-2.2,1.2-3.1c0.4-1,0.8-1.9,1.2-2.8c0.4-0.9,0.8-1.7,1.2-2.6h2.6c0.4,0.8,0.8,1.7,1.2,2.6    c0.4,0.9,0.8,1.8,1.2,2.8c0.4,1,0.8,2,1.2,3.1c0.4,1.1,0.8,2.3,1.3,3.6H278.7z M275.4,248.5c-0.1,0.2-0.1,0.4-0.3,0.7    c-0.1,0.3-0.3,0.7-0.4,1c-0.1,0.4-0.3,0.8-0.5,1.3s-0.4,1-0.6,1.5h3.5c-0.2-0.5-0.4-1-0.5-1.5s-0.3-0.9-0.5-1.3    c-0.2-0.4-0.3-0.7-0.4-1S275.5,248.6,275.4,248.5z"/>
		<path d="M283.2,257.8v-12.1h8.1v2.3h-5.4v2.5h4.8v2.3h-4.8v5H283.2z"/>
		<path d="M293.2,245.7h2.7v12.1h-2.7V245.7z"/>
		<path d="M306.8,255.5v2.3h-8.1v-12.1h2.7v9.8L306.8,255.5L306.8,255.5z"/>
		<path d="M308.6,245.7h2.7v12.1h-2.7V245.7z"/>
		<path d="M322.2,257.8c-0.1-0.4-0.3-0.9-0.4-1.3c-0.2-0.4-0.3-0.9-0.5-1.3h-4.7c-0.2,0.4-0.3,0.9-0.5,1.3s-0.3,0.9-0.4,1.3h-2.8    c0.5-1.3,0.9-2.5,1.3-3.6s0.8-2.2,1.2-3.1c0.4-1,0.8-1.9,1.2-2.8c0.4-0.9,0.8-1.7,1.2-2.6h2.6c0.4,0.8,0.8,1.7,1.2,2.6    c0.4,0.9,0.8,1.8,1.2,2.8c0.4,1,0.8,2,1.2,3.1c0.4,1.1,0.8,2.3,1.3,3.6H322.2z M318.9,248.5c-0.1,0.2-0.2,0.4-0.3,0.7    c-0.1,0.3-0.3,0.7-0.4,1c-0.1,0.4-0.3,0.8-0.5,1.3s-0.4,1-0.6,1.5h3.5c-0.2-0.5-0.4-1-0.5-1.5s-0.3-0.9-0.5-1.3    c-0.2-0.4-0.3-0.7-0.4-1S319,248.6,318.9,248.5z"/>
		<path d="M337.3,251.8c0,1-0.2,2-0.5,2.7c-0.3,0.8-0.8,1.4-1.4,1.9s-1.3,0.9-2.2,1.2c-0.9,0.3-1.8,0.4-2.9,0.4    c-0.5,0-1.1,0-1.7-0.1c-0.7,0-1.3-0.1-1.9-0.3v-11.8c0.6-0.1,1.3-0.2,2-0.2s1.3-0.1,1.8-0.1c1,0,2,0.1,2.8,0.3s1.6,0.6,2.2,1.1    s1.1,1.1,1.4,1.9C337.1,249.7,337.3,250.7,337.3,251.8z M329.4,255.6c0.1,0,0.3,0,0.4,0c0.2,0,0.4,0,0.6,0c1.4,0,2.4-0.3,3-1    c0.7-0.7,1-1.6,1-2.8c0-1.3-0.3-2.2-0.9-2.9s-1.6-1-3-1c-0.2,0-0.4,0-0.6,0s-0.4,0-0.6,0v7.7H329.4z"/>
		<path d="M351.1,251.8c0,1-0.2,1.9-0.5,2.7s-0.7,1.4-1.3,2c-0.5,0.5-1.2,0.9-1.9,1.2c-0.7,0.3-1.5,0.4-2.4,0.4    c-0.8,0-1.6-0.1-2.3-0.4c-0.7-0.3-1.4-0.7-1.9-1.2s-1-1.2-1.3-2s-0.5-1.7-0.5-2.7s0.2-1.9,0.5-2.7s0.8-1.4,1.3-2    c0.6-0.5,1.2-0.9,1.9-1.2c0.7-0.3,1.5-0.4,2.3-0.4s1.6,0.1,2.3,0.4c0.7,0.3,1.4,0.7,1.9,1.2s1,1.2,1.3,2    C350.9,249.8,351.1,250.7,351.1,251.8z M341.9,251.8c0,0.6,0.1,1.1,0.2,1.6s0.4,0.9,0.6,1.2c0.3,0.3,0.6,0.6,1,0.8    s0.9,0.3,1.4,0.3s1-0.1,1.4-0.3s0.7-0.5,1-0.8s0.5-0.8,0.6-1.2c0.1-0.5,0.2-1,0.2-1.6s-0.1-1.1-0.2-1.6s-0.4-0.9-0.6-1.2    c-0.3-0.3-0.6-0.6-1-0.8s-0.9-0.3-1.4-0.3s-1,0.1-1.4,0.3s-0.7,0.5-1,0.8s-0.5,0.8-0.6,1.2C341.9,250.7,341.9,251.2,341.9,251.8z"/>
		<path d="M356.7,255.8c0.4,0,0.7,0,1-0.1s0.5-0.2,0.6-0.3c0.2-0.1,0.3-0.2,0.3-0.4c0.1-0.2,0.1-0.3,0.1-0.5c0-0.4-0.2-0.7-0.6-1    s-1-0.5-1.9-0.8c-0.4-0.1-0.8-0.3-1.2-0.5c-0.4-0.2-0.8-0.4-1.1-0.7c-0.3-0.3-0.6-0.6-0.8-1c-0.2-0.4-0.3-0.9-0.3-1.4    s0.1-1.1,0.3-1.5c0.2-0.4,0.5-0.8,0.9-1.1s0.9-0.6,1.4-0.7c0.5-0.2,1.2-0.3,1.9-0.3c0.8,0,1.5,0.1,2.1,0.3s1.1,0.4,1.5,0.6    l-0.8,2.1c-0.3-0.2-0.7-0.3-1.1-0.5c-0.4-0.1-0.9-0.2-1.5-0.2c-0.7,0-1.1,0.1-1.4,0.3s-0.4,0.5-0.4,0.8c0,0.2,0.1,0.4,0.2,0.6    c0.1,0.2,0.3,0.3,0.4,0.4c0.2,0.1,0.4,0.2,0.7,0.3c0.3,0.1,0.5,0.2,0.8,0.3c0.6,0.2,1.2,0.5,1.6,0.7c0.5,0.2,0.9,0.5,1.2,0.8    c0.3,0.3,0.5,0.7,0.7,1.1c0.2,0.4,0.2,0.9,0.2,1.5c0,1.1-0.4,2-1.2,2.6c-0.8,0.6-2,0.9-3.6,0.9c-0.5,0-1,0-1.5-0.1    c-0.4-0.1-0.8-0.1-1.1-0.2c-0.3-0.1-0.6-0.2-0.9-0.3c-0.2-0.1-0.4-0.2-0.6-0.3l0.8-2.2c0.4,0.2,0.8,0.4,1.3,0.5    C355.3,255.7,355.9,255.8,356.7,255.8z"/>
	</g>
	<g class="st10">
		<g>
			<path class="st13" d="M329.2,266c0,0.1,0,0.2,0.2,0.2h0.9c0.1,0,0.2,0,0.2-0.2v-6.1c0-0.1,0-0.2-0.2-0.2h-0.9     c-0.2,0-0.2,0-0.2,0.2V266z"/>
		</g>
		<g>
			<path class="st14" d="M358.5,261.5c0.2,0,0.5,0,0.7,0c0.3,0,0.7,0,1,0c0.6,0.1,1,0.4,1.1,1c0.1,0.3,0.1,0.6,0.1,0.9     c0,0.5,0,1-0.1,1.5c-0.1,0.3-0.2,0.6-0.4,0.9c-0.2,0.2-0.4,0.3-0.7,0.3c-0.3,0.1-0.7,0.1-1,0.1c-0.4,0-0.8,0-1.2-0.1     c-0.2,0-0.4-0.1-0.6-0.1c-0.1,0-0.2-0.1-0.2-0.2v-0.1c0-1.9,0-3.9,0-5.8c0,0,0,0,0-0.1s0-0.2,0.2-0.2h0.9c0.2,0,0.2,0,0.2,0.2     v1.5V261.5z M358.5,265.1c0.4,0,0.8,0.1,1.1,0c0.2,0,0.4-0.1,0.4-0.3c0-0.1,0.1-0.2,0.1-0.3c0-0.4,0-0.7,0-1.1c0-0.1,0-0.2,0-0.3     c-0.1-0.3-0.2-0.5-0.6-0.5c-0.3,0-0.7,0-1,0l0,0V265.1z"/>
		</g>
		<g>
			<path class="st13" d="M343.1,263.4c0-0.2,0-0.3,0-0.4c0-0.2-0.2-0.4-0.5-0.4c-0.1,0-0.2,0-0.4,0c-0.5,0-0.9,0-1.4,0     c-0.2,0-0.2,0-0.2-0.2s0-0.4,0-0.6c0-0.1,0-0.1,0.1-0.1c0.7-0.1,1.4-0.1,2.1-0.1c0.3,0,0.6,0.1,0.8,0.2c0.3,0.2,0.5,0.5,0.6,0.8     c0,0.1,0,0.3,0,0.4c0,0.9,0,1.8,0,2.7c0,0,0,0,0,0.1c0,0.2-0.1,0.3-0.3,0.3c-0.6,0.1-1.2,0.1-1.8,0.1c-0.3,0-0.7,0-1-0.1     c-0.5-0.1-0.8-0.4-0.9-0.9c-0.1-0.4-0.1-0.7,0-1.1s0.4-0.6,0.8-0.7c0.2,0,0.5-0.1,0.7-0.1C342.3,263.4,342.6,263.4,343.1,263.4     L343.1,263.4z M343.1,264.2c-0.4,0-0.8,0-1.1,0c-0.2,0-0.3,0.1-0.4,0.4c0,0.1,0,0.2,0,0.3c0,0.2,0.1,0.3,0.3,0.3     c0.1,0,0.2,0,0.4,0c0.3,0,0.6,0,0.9-0.1L343.1,264.2z"/>
		</g>
		<g>
			<path class="st13" d="M337.9,262.6c-0.2,0-0.4,0.1-0.5,0.2s-0.1,0.3-0.1,0.4c0,0.4,0,0.8,0,1.2c0,0.2,0.1,0.4,0.2,0.5     s0.3,0.2,0.5,0.2c0.5,0,1,0,1.4,0h0.1c0.1,0,0.2,0,0.2,0.2s0,0.4,0,0.6c0,0.1,0,0.2-0.2,0.2c-0.6,0.1-1.1,0.1-1.7,0.1     c-0.3,0-0.7-0.1-1-0.2s-0.4-0.3-0.5-0.6c-0.1-0.3-0.2-0.7-0.2-1c0-0.5,0-1,0-1.5c0-0.3,0.1-0.5,0.2-0.8s0.3-0.4,0.6-0.5     c0.3-0.1,0.6-0.1,0.8-0.1c0.5,0,1,0,1.5,0c0.1,0,0.2,0,0.3,0.1c0.1,0,0.1,0.1,0.1,0.2c0,0.2,0,0.4,0,0.7c0,0.1,0,0.1-0.1,0.1     h-0.8C338.7,262.5,338.2,262.5,337.9,262.6"/>
		</g>
		<g>
			<path class="st14" d="M353.6,264.3c0,0.2,0,0.3,0.1,0.5s0.2,0.4,0.5,0.4c0.2,0,0.3,0,0.5,0c0.4,0,0.9,0,1.3,0     c0.2,0,0.2,0,0.2,0.2s0,0.4,0,0.6c0,0.1,0,0.2-0.2,0.2c-0.6,0.1-1.3,0.1-1.9,0.1c-0.3,0-0.6-0.1-0.8-0.2     c-0.4-0.2-0.6-0.5-0.7-0.9c-0.1-0.3-0.1-0.6-0.1-0.9c0-0.4,0-0.9,0-1.3c0-0.3,0.1-0.5,0.2-0.7c0.2-0.4,0.5-0.6,0.9-0.7     c0.5-0.1,1.1-0.1,1.7-0.1c0.2,0,0.4,0.1,0.6,0.1c0.4,0.1,0.6,0.4,0.7,0.8c0.1,0.3,0.1,0.7,0.1,1c0,0.2,0,0.4,0,0.6     c0,0.1-0.1,0.2-0.2,0.2s-0.1,0-0.2,0h-2.4L353.6,264.3L353.6,264.3z M355.3,263.4c0-0.2,0-0.3-0.1-0.5c0-0.2-0.1-0.3-0.3-0.4     c-0.3-0.1-0.6-0.1-0.9,0c-0.1,0-0.2,0.1-0.3,0.2c-0.1,0.2-0.1,0.4-0.1,0.7L355.3,263.4L355.3,263.4z"/>
		</g>
		<g>
			<path class="st13" d="M335.3,263.6c0-0.4,0-0.7-0.1-1.1s-0.3-0.7-0.7-0.9c-0.2-0.1-0.4-0.1-0.7-0.2c-0.3,0-0.6,0-1,0     c-0.3,0-0.6,0-0.9,0.1s-0.5,0.3-0.6,0.5c-0.2,0.3-0.2,0.6-0.2,1s0,0.8,0,1.2c0,0.3,0,0.5,0.1,0.8c0,0.3,0.2,0.5,0.3,0.7     c0.2,0.2,0.5,0.3,0.8,0.4c0.4,0.1,0.8,0.1,1.2,0c0.3,0,0.6,0,0.8-0.1c0.2-0.1,0.4-0.2,0.5-0.4c0.2-0.2,0.2-0.4,0.3-0.7     c0.1-0.3,0.1-0.7,0.1-1L335.3,263.6z M334.1,264c0,0.2,0,0.4-0.1,0.6c-0.1,0.3-0.2,0.5-0.5,0.5c-0.2,0-0.4,0-0.7,0     c-0.3-0.1-0.4-0.2-0.5-0.5c-0.1-0.4-0.1-0.8,0-1.2c0-0.1,0-0.2,0-0.3c0.1-0.4,0.2-0.5,0.6-0.6c0.2,0,0.4,0,0.6,0     c0.3,0,0.4,0.2,0.5,0.6c0,0.2,0,0.4,0,0.6L334.1,264z"/>
		</g>
		<g>
			<path class="st11" d="M352,261.6L352,261.6L352,261.6L352,261.6C351.9,261.5,351.9,261.5,352,261.6c-0.1-0.1-0.1-0.1-0.1-0.1     c-0.2,0-0.8,0-1,0l0,0c-0.1,0-0.1,0-0.1,0.1c-0.1,0.2-1.2,4.5-1.2,4.5h0.9l0,0c0.3,0,0.4-0.2,0.5-0.5c0-0.1,0.2-0.9,0.5-1.7     C351.8,262.9,352.1,261.8,352,261.6C352,261.7,352,261.7,352,261.6L352,261.6L352,261.6"/>
		</g>
		<g>
			<path class="st11" d="M349,261.6L349,261.6L349,261.6L349,261.6C349,261.5,349,261.5,349,261.6C349,261.5,349,261.5,349,261.6     C349,261.5,349,261.5,349,261.6C349,261.5,349,261.5,349,261.6C349,261.5,349,261.5,349,261.6c-0.1-0.1-0.1-0.1-0.1-0.1l0,0     c0,0,0,0-0.1,0c-0.2,0-0.8,0-0.9,0l0,0l0,0c-0.1,0-0.1,0-0.1,0.1c-0.1,0.2-1.2,4.5-1.2,4.5h0.9l0,0c0.3,0,0.4-0.2,0.5-0.5     c0-0.1,0.2-0.9,0.5-1.7l0,0C348.8,262.9,349.1,261.9,349,261.6C349,261.7,349,261.7,349,261.6L349,261.6L349,261.6"/>
		</g>
		<g>
			<path d="M346,261.5c-0.2,0-0.8,0-1,0c-0.1,0-0.1,0-0.1,0.1c0,0,0,0,0,0.1c0.3,1,1,3.7,1.1,4s0.3,0.5,0.5,0.5l0,0     c0,0,0.2-0.7,0.4-1.6c-0.3-1.2-0.8-2.8-0.8-3C346.1,261.5,346.1,261.5,346,261.5"/>
		</g>
		<g>
			<path d="M349.1,261.6C349.1,261.6,349,261.6,349.1,261.6C349,261.6,349,261.6,349.1,261.6C349,261.6,349,261.6,349.1,261.6     C349,261.6,349,261.6,349.1,261.6C349,261.6,349,261.6,349.1,261.6C349,261.6,349,261.6,349.1,261.6     C349,261.7,349,261.7,349.1,261.6c-0.1,0.3-0.4,1.3-0.7,2.3c0.2,0.8,0.4,1.6,0.5,1.8c0.1,0.3,0.3,0.5,0.5,0.5l0,0     c0,0,0.2-0.7,0.4-1.6C349.5,263.4,349.1,261.9,349.1,261.6"/>
		</g>
	</g>
</g>
<g>
	<g>
		<path class="st15" d="M98.1,267.2c0-0.6,0.1-1.2,0.3-1.8c0.2-0.5,0.5-1,0.9-1.4s0.8-0.7,1.4-1c0.5-0.2,1.2-0.4,1.9-0.4    c0.5,0,0.9,0,1.3,0.1c0.4,0.1,0.7,0.2,1.1,0.4l-0.5,1.9c-0.2-0.1-0.5-0.2-0.7-0.2c-0.3-0.1-0.6-0.1-0.9-0.1    c-0.7,0-1.3,0.2-1.6,0.7c-0.4,0.4-0.5,1-0.5,1.8c0,0.8,0.2,1.4,0.5,1.8c0.3,0.4,0.9,0.6,1.7,0.6c0.3,0,0.6,0,0.9-0.1    c0.3-0.1,0.6-0.1,0.9-0.3l0.3,2c-0.3,0.1-0.6,0.2-1.1,0.3s-0.9,0.1-1.4,0.1c-0.8,0-1.5-0.1-2-0.3s-1-0.6-1.4-1    c-0.4-0.4-0.6-0.9-0.8-1.4C98.1,268.5,98.1,267.9,98.1,267.2z"/>
		<path class="st15" d="M109.3,262.7c0.7,0,1.3,0.1,1.8,0.2c0.5,0.2,0.9,0.4,1.1,0.7c0.3,0.3,0.5,0.7,0.6,1.1    c0.1,0.4,0.2,0.9,0.2,1.5v5c-0.3,0.1-0.8,0.2-1.4,0.3s-1.4,0.2-2.2,0.2c-0.6,0-1.1,0-1.5-0.1c-0.5-0.1-0.8-0.3-1.2-0.5    c-0.3-0.2-0.6-0.5-0.7-0.9c-0.2-0.4-0.3-0.8-0.3-1.3c0-0.5,0.1-0.9,0.3-1.3s0.5-0.6,0.8-0.8c0.3-0.2,0.7-0.4,1.2-0.4    c0.4-0.1,0.9-0.1,1.4-0.1c0.3,0,0.6,0,0.8,0c0.2,0,0.4,0.1,0.6,0.1v-0.2c0-0.4-0.1-0.7-0.4-1c-0.2-0.2-0.7-0.4-1.3-0.4    c-0.4,0-0.8,0-1.2,0.1c-0.4,0.1-0.7,0.1-1,0.3l-0.3-2c0.1,0,0.3-0.1,0.5-0.1c0.2,0,0.4-0.1,0.7-0.1c0.2,0,0.5-0.1,0.8-0.1    S109,262.7,109.3,262.7z M109.5,269.8c0.2,0,0.5,0,0.7,0c0.2,0,0.4,0,0.5,0v-1.8c-0.1,0-0.2,0-0.4-0.1c-0.2,0-0.4,0-0.5,0    c-0.2,0-0.4,0-0.6,0c-0.2,0-0.4,0.1-0.5,0.2c-0.2,0.1-0.3,0.2-0.4,0.3c-0.1,0.1-0.1,0.3-0.1,0.5c0,0.4,0.1,0.6,0.4,0.8    C108.7,269.7,109,269.8,109.5,269.8z"/>
		<path class="st15" d="M122.8,271.2c-0.2,0.1-0.5,0.1-0.7,0.2c-0.3,0.1-0.6,0.1-0.9,0.2c-0.3,0-0.6,0.1-0.9,0.1s-0.6,0-0.9,0    c-0.7,0-1.3-0.1-1.9-0.3s-1-0.5-1.4-0.9c-0.4-0.4-0.7-0.9-0.9-1.4c-0.2-0.5-0.3-1.2-0.3-1.8c0-0.7,0.1-1.3,0.3-1.9    c0.2-0.6,0.4-1,0.7-1.4c0.3-0.4,0.7-0.7,1.2-0.9s1-0.3,1.6-0.3c0.3,0,0.6,0,0.9,0.1c0.3,0.1,0.5,0.2,0.8,0.3v-3.9l2.4-0.4V271.2z     M117.3,267.2c0,0.7,0.2,1.4,0.5,1.8s0.8,0.7,1.5,0.7c0.2,0,0.4,0,0.6,0s0.3,0,0.5-0.1v-4.4c-0.2-0.1-0.4-0.2-0.6-0.2    c-0.2-0.1-0.5-0.1-0.7-0.1C117.9,264.8,117.3,265.6,117.3,267.2z"/>
		<path class="st15" d="M128.1,262.7c0.7,0,1.3,0.1,1.8,0.2c0.5,0.2,0.9,0.4,1.1,0.7c0.3,0.3,0.5,0.7,0.6,1.1    c0.1,0.4,0.2,0.9,0.2,1.5v5c-0.3,0.1-0.8,0.2-1.4,0.3s-1.4,0.2-2.2,0.2c-0.6,0-1.1,0-1.5-0.1c-0.5-0.1-0.8-0.3-1.2-0.5    c-0.3-0.2-0.6-0.5-0.7-0.9c-0.2-0.4-0.3-0.8-0.3-1.3c0-0.5,0.1-0.9,0.3-1.3s0.5-0.6,0.8-0.8c0.3-0.2,0.7-0.4,1.2-0.4    c0.4-0.1,0.9-0.1,1.4-0.1c0.3,0,0.6,0,0.8,0c0.2,0,0.4,0.1,0.6,0.1v-0.2c0-0.4-0.1-0.7-0.4-1c-0.2-0.2-0.7-0.4-1.3-0.4    c-0.4,0-0.8,0-1.2,0.1c-0.4,0.1-0.7,0.1-1,0.3l-0.3-2c0.1,0,0.3-0.1,0.5-0.1c0.2,0,0.4-0.1,0.7-0.1c0.2,0,0.5-0.1,0.8-0.1    S127.8,262.7,128.1,262.7z M128.3,269.8c0.2,0,0.5,0,0.7,0c0.2,0,0.4,0,0.5,0v-1.8c-0.1,0-0.2,0-0.4-0.1c-0.2,0-0.4,0-0.5,0    c-0.2,0-0.4,0-0.6,0c-0.2,0-0.4,0.1-0.5,0.2c-0.2,0.1-0.3,0.2-0.4,0.3c-0.1,0.1-0.1,0.3-0.1,0.5c0,0.4,0.1,0.6,0.4,0.8    C127.5,269.7,127.9,269.8,128.3,269.8z"/>
	</g>
	<g>
		<path class="st15" d="M81.2,225.6c3.4,0,6.1,0.6,7.9,1.8c1.8,1.2,2.8,3.1,2.8,5.7c0,1.6-0.4,2.9-1.1,3.9c-0.7,1-1.8,1.8-3.2,2.4    c0.5,0.6,1,1.2,1.5,2c0.5,0.7,1,1.5,1.5,2.3c0.5,0.8,1,1.6,1.4,2.5c0.5,0.9,0.9,1.7,1.3,2.6h-5.8c-0.4-0.8-0.8-1.5-1.3-2.3    c-0.4-0.8-0.9-1.5-1.3-2.3c-0.5-0.7-0.9-1.4-1.3-2.1c-0.4-0.7-0.9-1.2-1.3-1.8h-2.6v8.4h-5.2v-22.7c1.1-0.2,2.3-0.4,3.5-0.5    C79.2,225.7,80.3,225.6,81.2,225.6z M81.5,230.1c-0.4,0-0.7,0-1,0c-0.3,0-0.6,0-0.8,0.1v6.2h1.5c1.9,0,3.3-0.2,4.2-0.7    s1.3-1.3,1.3-2.5c0-1.1-0.4-1.9-1.3-2.4C84.4,230.3,83.2,230.1,81.5,230.1z"/>
		<path class="st15" d="M101.3,248.6c-1.6-0.1-2.9-0.4-3.9-0.7c-1-0.4-1.8-0.7-2.2-0.9l1.4-3.8c0.8,0.4,1.7,0.7,2.8,1    c1.1,0.3,2.2,0.5,3.4,0.5c1.3,0,2.3-0.2,2.8-0.5s0.7-0.9,0.7-1.5c0-0.4-0.1-0.8-0.3-1.1c-0.2-0.3-0.5-0.6-0.9-0.8    s-0.9-0.5-1.4-0.7c-0.6-0.2-1.2-0.5-2-0.7c-0.7-0.3-1.4-0.6-2.1-0.9c-0.7-0.3-1.3-0.7-1.9-1.2c-0.6-0.5-1-1-1.4-1.7    s-0.5-1.5-0.5-2.4c0-0.7,0.1-1.4,0.3-2.1c0.2-0.7,0.5-1.3,1-1.8c0.4-0.6,1-1,1.7-1.4c0.7-0.4,1.5-0.7,2.5-0.8v-3.6h4.2v3.4    c1.1,0.1,2.1,0.3,3,0.5c0.8,0.2,1.5,0.4,2,0.7l-1,4c-0.7-0.3-1.6-0.6-2.5-0.8c-1-0.2-2-0.3-3-0.3s-1.8,0.2-2.3,0.5    c-0.5,0.4-0.7,0.8-0.7,1.4c0,0.4,0.1,0.7,0.2,0.9c0.1,0.3,0.4,0.5,0.7,0.7c0.3,0.2,0.7,0.4,1.1,0.6c0.5,0.2,1,0.4,1.6,0.6    c1,0.4,1.9,0.7,2.7,1.2c0.8,0.4,1.5,0.9,2.2,1.4c0.6,0.5,1.1,1.2,1.4,1.9s0.5,1.6,0.5,2.6c0,0.7-0.1,1.3-0.3,2    c-0.2,0.7-0.5,1.3-1,1.8s-1.1,1-1.8,1.4c-0.7,0.4-1.7,0.7-2.7,0.9v4h-4.2V248.6z"/>
		<path class="st15" d="M138.3,242.5c0,1-0.2,1.9-0.5,2.7c-0.3,0.8-0.9,1.6-1.5,2.2c-0.7,0.6-1.5,1.1-2.6,1.4    c-1,0.3-2.2,0.5-3.6,0.5c-1.5,0-2.8-0.2-3.9-0.6c-1-0.4-1.9-1-2.5-1.6c-0.6-0.6-1.1-1.3-1.3-2.1c-0.3-0.8-0.4-1.5-0.4-2.1    c0-0.7,0.1-1.3,0.3-1.8c0.2-0.6,0.4-1.1,0.7-1.5s0.7-0.9,1-1.2c0.4-0.4,0.8-0.7,1.2-1.1c-1-0.8-1.7-1.5-2.1-2.3    c-0.5-0.8-0.7-1.7-0.7-2.9c0-0.9,0.2-1.7,0.5-2.6c0.4-0.8,0.9-1.5,1.5-2.1c0.7-0.6,1.5-1.1,2.4-1.5c0.9-0.4,2-0.5,3.1-0.5    c1.3,0,2.5,0.2,3.5,0.6s1.8,0.9,2.4,1.5c0.6,0.6,1.1,1.3,1.3,2c0.3,0.7,0.4,1.5,0.4,2.2c0,1.1-0.3,2-0.8,3s-1.3,1.6-2.1,2.2    c1.3,0.8,2.2,1.7,2.7,2.6C138.1,240.2,138.3,241.3,138.3,242.5z M126.8,242.7c0,0.3,0.1,0.6,0.2,0.9c0.1,0.3,0.3,0.6,0.6,0.9    c0.3,0.3,0.6,0.5,1,0.7c0.4,0.2,0.9,0.3,1.5,0.3c1.1,0,2-0.3,2.5-0.8c0.5-0.6,0.8-1.2,0.8-1.9c0-0.5-0.1-1-0.3-1.4    c-0.2-0.4-0.5-0.7-0.9-1c-0.4-0.3-0.9-0.6-1.4-0.8c-0.5-0.2-1.1-0.4-1.7-0.6c-0.6,0.5-1.1,1-1.6,1.6    C127.1,241.1,126.8,241.8,126.8,242.7z M133,231.8c0-0.2,0-0.5-0.1-0.8s-0.3-0.5-0.5-0.8c-0.2-0.2-0.5-0.4-0.9-0.6    c-0.4-0.2-0.8-0.2-1.3-0.2c-0.5,0-0.9,0.1-1.3,0.2c-0.4,0.2-0.6,0.4-0.9,0.6c-0.2,0.3-0.4,0.5-0.5,0.8c-0.1,0.3-0.2,0.6-0.2,0.8    c0,0.7,0.3,1.4,0.8,2c0.5,0.6,1.4,1.1,2.7,1.6c0.7-0.4,1.2-0.9,1.6-1.5C132.8,233.3,133,232.6,133,231.8z"/>
		<path class="st15" d="M157.3,237.3c0,3.9-0.7,6.8-2.2,8.9c-1.5,2.1-3.5,3.1-6.1,3.1c-2.6,0-4.6-1-6.1-3.1c-1.5-2.1-2.2-5-2.2-8.9    c0-1.9,0.2-3.6,0.6-5.1s0.9-2.7,1.7-3.7c0.7-1,1.6-1.8,2.6-2.3c1-0.5,2.2-0.8,3.4-0.8c2.6,0,4.6,1,6.1,3.1    C156.6,230.5,157.3,233.5,157.3,237.3z M152.3,237.3c0-1.1-0.1-2.2-0.2-3.1c-0.1-0.9-0.3-1.8-0.5-2.4s-0.6-1.2-1-1.6    c-0.4-0.4-0.9-0.6-1.6-0.6c-0.6,0-1.1,0.2-1.5,0.6c-0.4,0.4-0.7,0.9-1,1.6c-0.3,0.7-0.4,1.5-0.5,2.4c-0.1,0.9-0.2,2-0.2,3.1    c0,1.2,0.1,2.2,0.2,3.2c0.1,1,0.3,1.8,0.5,2.5c0.3,0.7,0.6,1.2,1,1.6c0.4,0.4,0.9,0.6,1.5,0.6c0.6,0,1.1-0.2,1.6-0.6    c0.4-0.4,0.8-0.9,1-1.6s0.4-1.5,0.5-2.5C152.2,239.5,152.3,238.5,152.3,237.3z"/>
	</g>
	<g>
		<path class="st15" d="M282.9,267.2c0-0.6,0.1-1.2,0.3-1.8c0.2-0.5,0.5-1,0.9-1.4s0.8-0.7,1.4-1c0.5-0.2,1.2-0.4,1.9-0.4    c0.5,0,0.9,0,1.3,0.1c0.4,0.1,0.7,0.2,1.1,0.4l-0.5,1.9c-0.2-0.1-0.5-0.2-0.7-0.2c-0.3-0.1-0.6-0.1-0.9-0.1    c-0.7,0-1.3,0.2-1.6,0.7c-0.4,0.4-0.5,1-0.5,1.8c0,0.8,0.2,1.4,0.5,1.8c0.3,0.4,0.9,0.6,1.7,0.6c0.3,0,0.6,0,0.9-0.1    c0.3-0.1,0.6-0.1,0.9-0.3l0.3,2c-0.3,0.1-0.6,0.2-1.1,0.3s-0.9,0.1-1.4,0.1c-0.8,0-1.5-0.1-2-0.3s-1-0.6-1.4-1    c-0.4-0.4-0.6-0.9-0.8-1.4C283,268.5,282.9,267.9,282.9,267.2z"/>
		<path class="st15" d="M294.2,262.7c0.7,0,1.3,0.1,1.8,0.2c0.5,0.2,0.9,0.4,1.1,0.7c0.3,0.3,0.5,0.7,0.6,1.1    c0.1,0.4,0.2,0.9,0.2,1.5v5c-0.3,0.1-0.8,0.2-1.5,0.3c-0.6,0.1-1.4,0.2-2.2,0.2c-0.6,0-1.1,0-1.5-0.1c-0.5-0.1-0.8-0.3-1.2-0.5    c-0.3-0.2-0.6-0.5-0.7-0.9c-0.2-0.4-0.3-0.8-0.3-1.3c0-0.5,0.1-0.9,0.3-1.3s0.5-0.6,0.8-0.8c0.3-0.2,0.7-0.4,1.2-0.4    c0.4-0.1,0.9-0.1,1.4-0.1c0.3,0,0.6,0,0.8,0s0.4,0.1,0.6,0.1v-0.2c0-0.4-0.1-0.7-0.4-1c-0.2-0.2-0.7-0.4-1.3-0.4    c-0.4,0-0.8,0-1.2,0.1c-0.4,0.1-0.7,0.1-1,0.3l-0.3-2c0.1,0,0.3-0.1,0.5-0.1c0.2,0,0.4-0.1,0.7-0.1c0.2,0,0.5-0.1,0.8-0.1    S293.9,262.7,294.2,262.7z M294.4,269.8c0.2,0,0.5,0,0.7,0c0.2,0,0.4,0,0.5,0v-1.8c-0.1,0-0.2,0-0.4-0.1s-0.4,0-0.5,0    c-0.2,0-0.4,0-0.6,0c-0.2,0-0.4,0.1-0.5,0.2c-0.2,0.1-0.3,0.2-0.4,0.3c-0.1,0.1-0.1,0.3-0.1,0.5c0,0.4,0.1,0.6,0.4,0.8    C293.6,269.8,293.9,269.8,294.4,269.8z"/>
		<path class="st15" d="M307.6,271.2c-0.2,0.1-0.5,0.1-0.7,0.2c-0.3,0.1-0.6,0.1-0.9,0.2c-0.3,0-0.6,0.1-0.9,0.1c-0.3,0-0.6,0-0.9,0    c-0.7,0-1.3-0.1-1.9-0.3s-1-0.5-1.4-0.9c-0.4-0.4-0.7-0.9-0.9-1.4c-0.2-0.5-0.3-1.2-0.3-1.8c0-0.7,0.1-1.3,0.3-1.9    c0.2-0.6,0.4-1,0.7-1.4c0.3-0.4,0.7-0.7,1.2-0.9c0.5-0.2,1-0.3,1.6-0.3c0.3,0,0.6,0,0.9,0.1c0.3,0.1,0.5,0.2,0.8,0.3v-3.9l2.4-0.4    V271.2z M302.2,267.2c0,0.7,0.2,1.4,0.5,1.8c0.3,0.5,0.8,0.7,1.5,0.7c0.2,0,0.4,0,0.6,0s0.3,0,0.5-0.1v-4.4    c-0.2-0.1-0.4-0.2-0.6-0.2c-0.2-0.1-0.5-0.1-0.7-0.1C302.7,264.8,302.2,265.6,302.2,267.2z"/>
		<path class="st15" d="M313,262.7c0.7,0,1.3,0.1,1.8,0.2c0.5,0.2,0.9,0.4,1.1,0.7c0.3,0.3,0.5,0.7,0.6,1.1c0.1,0.4,0.2,0.9,0.2,1.5    v5c-0.3,0.1-0.8,0.2-1.5,0.3c-0.6,0.1-1.4,0.2-2.2,0.2c-0.6,0-1.1,0-1.5-0.1c-0.5-0.1-0.8-0.3-1.2-0.5c-0.3-0.2-0.6-0.5-0.8-0.9    s-0.3-0.8-0.3-1.3c0-0.5,0.1-0.9,0.3-1.3s0.5-0.6,0.8-0.8c0.3-0.2,0.7-0.4,1.2-0.4c0.4-0.1,0.9-0.1,1.4-0.1c0.3,0,0.6,0,0.8,0    s0.4,0.1,0.6,0.1v-0.2c0-0.4-0.1-0.7-0.4-1c-0.2-0.2-0.7-0.4-1.3-0.4c-0.4,0-0.8,0-1.2,0.1c-0.4,0.1-0.7,0.1-1,0.3l-0.3-2    c0.1,0,0.3-0.1,0.5-0.1c0.2,0,0.4-0.1,0.7-0.1c0.2,0,0.5-0.1,0.8-0.1C312.4,262.7,312.7,262.7,313,262.7z M313.2,269.8    c0.2,0,0.5,0,0.7,0c0.2,0,0.4,0,0.5,0v-1.8c-0.1,0-0.2,0-0.4-0.1s-0.4,0-0.5,0c-0.2,0-0.4,0-0.6,0c-0.2,0-0.4,0.1-0.5,0.2    c-0.2,0.1-0.3,0.2-0.4,0.3c-0.1,0.1-0.1,0.3-0.1,0.5c0,0.4,0.1,0.6,0.4,0.8C312.4,269.8,312.8,269.8,313.2,269.8z"/>
	</g>
	<g>
		<path class="st15" d="M256.7,225.6c3.4,0,6.1,0.6,7.9,1.8c1.8,1.2,2.8,3.1,2.8,5.7c0,1.6-0.4,2.9-1.1,3.9c-0.7,1-1.8,1.8-3.2,2.4    c0.5,0.6,1,1.2,1.5,2c0.5,0.7,1,1.5,1.5,2.3c0.5,0.8,1,1.6,1.4,2.5c0.5,0.9,0.9,1.7,1.3,2.6H263c-0.4-0.8-0.8-1.5-1.3-2.3    c-0.4-0.8-0.9-1.5-1.3-2.3c-0.5-0.7-0.9-1.4-1.3-2.1c-0.4-0.7-0.9-1.2-1.3-1.8h-2.6v8.4h-5.2v-22.7c1.1-0.2,2.3-0.4,3.5-0.5    C254.6,225.7,255.7,225.6,256.7,225.6z M257,230.1c-0.4,0-0.7,0-1,0c-0.3,0-0.6,0-0.8,0.1v6.2h1.5c1.9,0,3.3-0.2,4.2-0.7    s1.3-1.3,1.3-2.5c0-1.1-0.4-1.9-1.3-2.4C259.9,230.3,258.6,230.1,257,230.1z"/>
		<path class="st15" d="M276.7,248.6c-1.6-0.1-2.9-0.4-3.9-0.7c-1-0.4-1.8-0.7-2.2-0.9l1.4-3.8c0.8,0.4,1.7,0.7,2.8,1    c1.1,0.3,2.2,0.5,3.4,0.5c1.3,0,2.3-0.2,2.8-0.5s0.7-0.9,0.7-1.5c0-0.4-0.1-0.8-0.3-1.1c-0.2-0.3-0.5-0.6-0.9-0.8    s-0.9-0.5-1.4-0.7c-0.6-0.2-1.2-0.5-2-0.7c-0.7-0.3-1.4-0.6-2.1-0.9c-0.7-0.3-1.3-0.7-1.9-1.2c-0.6-0.5-1-1-1.4-1.7    s-0.5-1.5-0.5-2.4c0-0.7,0.1-1.4,0.3-2.1c0.2-0.7,0.5-1.3,1-1.8c0.4-0.6,1-1,1.7-1.4c0.7-0.4,1.5-0.7,2.5-0.8v-3.6h4.2v3.4    c1.1,0.1,2.1,0.3,3,0.5c0.8,0.2,1.5,0.4,2,0.7l-1,4c-0.7-0.3-1.6-0.6-2.5-0.8c-1-0.2-2-0.3-3-0.3s-1.8,0.2-2.3,0.5    c-0.5,0.4-0.7,0.8-0.7,1.4c0,0.4,0.1,0.7,0.2,0.9c0.1,0.3,0.4,0.5,0.7,0.7c0.3,0.2,0.7,0.4,1.1,0.6c0.5,0.2,1,0.4,1.6,0.6    c1,0.4,1.9,0.7,2.7,1.2c0.8,0.4,1.5,0.9,2.2,1.4c0.6,0.5,1.1,1.2,1.4,1.9s0.5,1.6,0.5,2.6c0,0.7-0.1,1.3-0.3,2    c-0.2,0.7-0.5,1.3-1,1.8s-1.1,1-1.8,1.4c-0.7,0.4-1.7,0.7-2.7,0.9v4h-4.2V248.6z"/>
		<path class="st15" d="M298.5,230.7c0.6-0.3,1.3-0.6,2-0.9c0.7-0.3,1.4-0.7,2-1.1c0.7-0.4,1.3-0.8,1.9-1.3c0.6-0.5,1.2-0.9,1.6-1.4    h3.4v23h-4.9v-16.6c-0.7,0.4-1.4,0.8-2.2,1.2c-0.8,0.4-1.6,0.7-2.4,0.9L298.5,230.7z"/>
		<path class="st15" d="M332.8,237.3c0,3.9-0.7,6.8-2.2,8.9s-3.5,3.1-6.1,3.1c-2.6,0-4.6-1-6.1-3.1c-1.5-2.1-2.2-5-2.2-8.9    c0-1.9,0.2-3.6,0.6-5.1s0.9-2.7,1.7-3.7c0.7-1,1.6-1.8,2.6-2.3c1-0.5,2.2-0.8,3.4-0.8c2.6,0,4.6,1,6.1,3.1    C332,230.5,332.8,233.5,332.8,237.3z M327.7,237.3c0-1.1-0.1-2.2-0.2-3.1c-0.1-0.9-0.3-1.8-0.5-2.4c-0.2-0.7-0.6-1.2-1-1.6    c-0.4-0.4-0.9-0.6-1.6-0.6s-1.1,0.2-1.5,0.6c-0.4,0.4-0.7,0.9-1,1.6c-0.3,0.7-0.4,1.5-0.5,2.4c-0.1,0.9-0.2,2-0.2,3.1    c0,1.2,0.1,2.2,0.2,3.2c0.1,1,0.3,1.8,0.5,2.5c0.3,0.7,0.6,1.2,1,1.6c0.4,0.4,0.9,0.6,1.5,0.6s1.1-0.2,1.6-0.6    c0.4-0.4,0.8-0.9,1-1.6c0.2-0.7,0.4-1.5,0.5-2.5C327.7,239.5,327.7,238.5,327.7,237.3z"/>
		<path class="st15" d="M351.6,237.3c0,3.9-0.7,6.8-2.2,8.9s-3.5,3.1-6.1,3.1c-2.6,0-4.6-1-6.1-3.1c-1.5-2.1-2.2-5-2.2-8.9    c0-1.9,0.2-3.6,0.6-5.1s0.9-2.7,1.7-3.7c0.7-1,1.6-1.8,2.6-2.3c1-0.5,2.2-0.8,3.4-0.8c2.6,0,4.6,1,6.1,3.1    C350.9,230.5,351.6,233.5,351.6,237.3z M346.6,237.3c0-1.1-0.1-2.2-0.2-3.1c-0.1-0.9-0.3-1.8-0.5-2.4c-0.2-0.7-0.6-1.2-1-1.6    c-0.4-0.4-0.9-0.6-1.6-0.6s-1.1,0.2-1.5,0.6c-0.4,0.4-0.7,0.9-1,1.6c-0.3,0.7-0.4,1.5-0.5,2.4c-0.1,0.9-0.2,2-0.2,3.1    c0,1.2,0.1,2.2,0.2,3.2c0.1,1,0.3,1.8,0.5,2.5c0.3,0.7,0.6,1.2,1,1.6c0.4,0.4,0.9,0.6,1.5,0.6s1.1-0.2,1.6-0.6    c0.4-0.4,0.8-0.9,1-1.6c0.2-0.7,0.4-1.5,0.5-2.5C346.5,239.5,346.6,238.5,346.6,237.3z"/>
	</g>
	<g>
		<path class="st15" d="M467.8,267.2c0-0.6,0.1-1.2,0.3-1.8c0.2-0.5,0.5-1,0.9-1.4s0.8-0.7,1.4-1c0.5-0.2,1.2-0.4,1.9-0.4    c0.5,0,0.9,0,1.3,0.1c0.4,0.1,0.7,0.2,1.1,0.4l-0.5,1.9c-0.2-0.1-0.5-0.2-0.7-0.2s-0.6-0.1-0.9-0.1c-0.7,0-1.3,0.2-1.6,0.7    c-0.4,0.4-0.5,1-0.5,1.8c0,0.8,0.2,1.4,0.5,1.8c0.3,0.4,0.9,0.6,1.7,0.6c0.3,0,0.6,0,0.9-0.1c0.3-0.1,0.6-0.1,0.9-0.3l0.3,2    c-0.3,0.1-0.6,0.2-1.1,0.3c-0.4,0.1-0.9,0.1-1.4,0.1c-0.8,0-1.5-0.1-2-0.3s-1-0.6-1.4-1c-0.4-0.4-0.6-0.9-0.8-1.4    C467.9,268.5,467.8,267.9,467.8,267.2z"/>
		<path class="st15" d="M479,262.7c0.7,0,1.3,0.1,1.8,0.2c0.5,0.2,0.9,0.4,1.1,0.7c0.3,0.3,0.5,0.7,0.6,1.1c0.1,0.4,0.2,0.9,0.2,1.5    v5c-0.3,0.1-0.8,0.2-1.5,0.3c-0.6,0.1-1.4,0.2-2.2,0.2c-0.6,0-1.1,0-1.5-0.1c-0.5-0.1-0.8-0.3-1.2-0.5c-0.3-0.2-0.6-0.5-0.8-0.9    s-0.3-0.8-0.3-1.3c0-0.5,0.1-0.9,0.3-1.3s0.5-0.6,0.8-0.8c0.3-0.2,0.7-0.4,1.2-0.4c0.4-0.1,0.9-0.1,1.4-0.1c0.3,0,0.6,0,0.8,0    s0.4,0.1,0.6,0.1v-0.2c0-0.4-0.1-0.7-0.4-1c-0.2-0.2-0.7-0.4-1.3-0.4c-0.4,0-0.8,0-1.2,0.1c-0.4,0.1-0.7,0.1-1,0.3l-0.3-2    c0.1,0,0.3-0.1,0.5-0.1c0.2,0,0.4-0.1,0.7-0.1c0.2,0,0.5-0.1,0.8-0.1C478.5,262.7,478.8,262.7,479,262.7z M479.2,269.8    c0.2,0,0.5,0,0.7,0c0.2,0,0.4,0,0.5,0v-1.8c-0.1,0-0.2,0-0.4-0.1s-0.4,0-0.5,0c-0.2,0-0.4,0-0.6,0c-0.2,0-0.4,0.1-0.5,0.2    c-0.2,0.1-0.3,0.2-0.4,0.3c-0.1,0.1-0.1,0.3-0.1,0.5c0,0.4,0.1,0.6,0.4,0.8C478.4,269.8,478.8,269.8,479.2,269.8z"/>
		<path class="st15" d="M492.5,271.2c-0.2,0.1-0.5,0.1-0.7,0.2c-0.3,0.1-0.6,0.1-0.9,0.2c-0.3,0-0.6,0.1-0.9,0.1c-0.3,0-0.6,0-0.9,0    c-0.7,0-1.3-0.1-1.9-0.3s-1-0.5-1.4-0.9c-0.4-0.4-0.7-0.9-0.9-1.4c-0.2-0.5-0.3-1.2-0.3-1.8c0-0.7,0.1-1.3,0.3-1.9    c0.2-0.6,0.4-1,0.7-1.4c0.3-0.4,0.7-0.7,1.2-0.9c0.5-0.2,1-0.3,1.6-0.3c0.3,0,0.6,0,0.9,0.1c0.3,0.1,0.5,0.2,0.8,0.3v-3.9l2.4-0.4    V271.2z M487,267.2c0,0.7,0.2,1.4,0.5,1.8c0.3,0.5,0.8,0.7,1.5,0.7c0.2,0,0.4,0,0.6,0s0.3,0,0.5-0.1v-4.4    c-0.2-0.1-0.4-0.2-0.6-0.2c-0.2-0.1-0.5-0.1-0.7-0.1C487.6,264.8,487,265.6,487,267.2z"/>
		<path class="st15" d="M497.9,262.7c0.7,0,1.3,0.1,1.8,0.2c0.5,0.2,0.9,0.4,1.1,0.7c0.3,0.3,0.5,0.7,0.6,1.1    c0.1,0.4,0.2,0.9,0.2,1.5v5c-0.3,0.1-0.8,0.2-1.5,0.3c-0.6,0.1-1.4,0.2-2.2,0.2c-0.6,0-1.1,0-1.5-0.1c-0.5-0.1-0.8-0.3-1.2-0.5    c-0.3-0.2-0.6-0.5-0.8-0.9s-0.3-0.8-0.3-1.3c0-0.5,0.1-0.9,0.3-1.3s0.5-0.6,0.8-0.8c0.3-0.2,0.7-0.4,1.2-0.4    c0.4-0.1,0.9-0.1,1.4-0.1c0.3,0,0.6,0,0.8,0s0.4,0.1,0.6,0.1v-0.2c0-0.4-0.1-0.7-0.4-1c-0.2-0.2-0.7-0.4-1.3-0.4    c-0.4,0-0.8,0-1.2,0.1c-0.4,0.1-0.7,0.1-1,0.3l-0.3-2c0.1,0,0.3-0.1,0.5-0.1c0.2,0,0.4-0.1,0.7-0.1c0.2,0,0.5-0.1,0.8-0.1    C497.3,262.7,497.6,262.7,497.9,262.7z M498.1,269.8c0.2,0,0.5,0,0.7,0c0.2,0,0.4,0,0.5,0v-1.8c-0.1,0-0.2,0-0.4-0.1s-0.4,0-0.5,0    c-0.2,0-0.4,0-0.6,0c-0.2,0-0.4,0.1-0.5,0.2c-0.2,0.1-0.3,0.2-0.4,0.3c-0.1,0.1-0.1,0.3-0.1,0.5c0,0.4,0.1,0.6,0.4,0.8    C497.3,269.8,497.6,269.8,498.1,269.8z"/>
	</g>
	<g>
		<path class="st15" d="M441.5,225.6c3.5,0,6.1,0.6,7.9,1.8c1.8,1.2,2.8,3.1,2.8,5.7c0,1.6-0.4,2.9-1.1,3.9c-0.7,1-1.8,1.8-3.2,2.4    c0.5,0.6,1,1.2,1.5,2s1,1.5,1.5,2.3c0.5,0.8,1,1.6,1.4,2.5c0.5,0.9,0.9,1.7,1.3,2.6h-5.8c-0.4-0.8-0.8-1.5-1.3-2.3    c-0.4-0.8-0.9-1.5-1.3-2.3c-0.5-0.7-0.9-1.4-1.3-2.1s-0.9-1.2-1.3-1.8H440v8.4h-5.2v-22.7c1.1-0.2,2.3-0.4,3.5-0.5    C439.5,225.7,440.6,225.6,441.5,225.6z M441.8,230.1c-0.4,0-0.7,0-1,0c-0.3,0-0.6,0-0.8,0.1v6.2h1.5c1.9,0,3.3-0.2,4.2-0.7    c0.8-0.5,1.3-1.3,1.3-2.5c0-1.1-0.4-1.9-1.3-2.4S443.5,230.1,441.8,230.1z"/>
		<path class="st15" d="M461.6,248.6c-1.6-0.1-2.9-0.4-3.9-0.7c-1-0.4-1.8-0.7-2.2-0.9l1.4-3.8c0.8,0.4,1.7,0.7,2.8,1    c1.1,0.3,2.2,0.5,3.4,0.5c1.3,0,2.3-0.2,2.8-0.5c0.5-0.4,0.7-0.9,0.7-1.5c0-0.4-0.1-0.8-0.3-1.1c-0.2-0.3-0.5-0.6-0.9-0.8    c-0.4-0.2-0.9-0.5-1.4-0.7s-1.2-0.5-2-0.7c-0.7-0.3-1.4-0.6-2.1-0.9c-0.7-0.3-1.3-0.7-1.9-1.2c-0.6-0.5-1-1-1.4-1.7    c-0.3-0.7-0.5-1.5-0.5-2.4c0-0.7,0.1-1.4,0.3-2.1c0.2-0.7,0.5-1.3,1-1.8c0.4-0.6,1-1,1.7-1.4c0.7-0.4,1.5-0.7,2.5-0.8v-3.6h4.2    v3.4c1.1,0.1,2.1,0.3,3,0.5c0.8,0.2,1.5,0.4,2,0.7l-1,4c-0.7-0.3-1.6-0.6-2.5-0.8c-1-0.2-2-0.3-3-0.3s-1.8,0.2-2.3,0.5    c-0.5,0.4-0.7,0.8-0.7,1.4c0,0.4,0.1,0.7,0.2,0.9c0.1,0.3,0.4,0.5,0.7,0.7s0.7,0.4,1.1,0.6c0.5,0.2,1,0.4,1.6,0.6    c1,0.4,1.9,0.7,2.7,1.2c0.8,0.4,1.5,0.9,2.2,1.4c0.6,0.5,1.1,1.2,1.4,1.9c0.3,0.7,0.5,1.6,0.5,2.6c0,0.7-0.1,1.3-0.3,2    c-0.2,0.7-0.5,1.3-1,1.8c-0.5,0.6-1.1,1-1.8,1.4c-0.7,0.4-1.7,0.7-2.7,0.9v4h-4.2V248.6z"/>
		<path class="st15" d="M483.4,230.7c0.6-0.3,1.3-0.6,2-0.9c0.7-0.3,1.4-0.7,2-1.1c0.7-0.4,1.3-0.8,1.9-1.3c0.6-0.5,1.2-0.9,1.6-1.4    h3.4v23h-4.9v-16.6c-0.7,0.4-1.4,0.8-2.2,1.2c-0.8,0.4-1.6,0.7-2.4,0.9L483.4,230.7z"/>
		<path class="st15" d="M507.5,249.4c-0.6,0-1.2,0-1.9-0.1c-0.7-0.1-1.3-0.2-1.9-0.3s-1.2-0.3-1.7-0.4c-0.5-0.2-0.9-0.3-1.2-0.4    l1-4.1c0.6,0.2,1.3,0.5,2.2,0.8c0.9,0.3,2,0.4,3.3,0.4c1.5,0,2.6-0.3,3.4-0.9c0.7-0.6,1.1-1.3,1.1-2.3c0-0.6-0.1-1.1-0.4-1.5    s-0.6-0.7-1-1s-1-0.4-1.6-0.5s-1.3-0.1-1.9-0.1h-1.9v-4h2.2c0.5,0,1,0,1.4-0.1c0.5-0.1,0.9-0.2,1.2-0.4c0.4-0.2,0.6-0.5,0.8-0.9    s0.3-0.8,0.3-1.4c0-0.4-0.1-0.8-0.3-1.1c-0.2-0.3-0.4-0.6-0.7-0.8c-0.3-0.2-0.6-0.3-1-0.4c-0.4-0.1-0.7-0.1-1.1-0.1    c-1,0-1.8,0.1-2.6,0.4c-0.8,0.3-1.5,0.6-2.2,1.1l-1.8-3.6c0.4-0.2,0.8-0.5,1.2-0.7s1-0.5,1.6-0.7c0.6-0.2,1.2-0.4,1.8-0.5    s1.3-0.2,2.1-0.2c1.3,0,2.5,0.2,3.5,0.5c1,0.3,1.8,0.8,2.4,1.4c0.6,0.6,1.1,1.3,1.4,2.1c0.3,0.8,0.5,1.6,0.5,2.6    c0,0.9-0.3,1.8-0.8,2.6c-0.5,0.8-1.2,1.5-2.1,1.9c1.2,0.5,2.1,1.2,2.8,2.2c0.7,1,1,2.1,1,3.5c0,1.1-0.2,2-0.5,2.9    s-0.9,1.7-1.7,2.3s-1.7,1.2-2.9,1.5C510.5,249.2,509.1,249.4,507.5,249.4z"/>
		<path class="st15" d="M536.5,237.3c0,3.9-0.7,6.8-2.2,8.9s-3.5,3.1-6.1,3.1c-2.6,0-4.6-1-6.1-3.1c-1.5-2.1-2.2-5-2.2-8.9    c0-1.9,0.2-3.6,0.6-5.1s0.9-2.7,1.7-3.7c0.7-1,1.6-1.8,2.6-2.3c1-0.5,2.2-0.8,3.4-0.8c2.6,0,4.6,1,6.1,3.1    C535.7,230.5,536.5,233.5,536.5,237.3z M531.4,237.3c0-1.1-0.1-2.2-0.2-3.1c-0.1-0.9-0.3-1.8-0.5-2.4c-0.2-0.7-0.6-1.2-1-1.6    c-0.4-0.4-0.9-0.6-1.6-0.6s-1.1,0.2-1.5,0.6c-0.4,0.4-0.7,0.9-1,1.6c-0.3,0.7-0.4,1.5-0.5,2.4c-0.1,0.9-0.2,2-0.2,3.1    c0,1.2,0.1,2.2,0.2,3.2c0.1,1,0.3,1.8,0.5,2.5c0.3,0.7,0.6,1.2,1,1.6c0.4,0.4,0.9,0.6,1.5,0.6s1.1-0.2,1.6-0.6    c0.4-0.4,0.8-0.9,1-1.6c0.2-0.7,0.4-1.5,0.5-2.5C531.4,239.5,531.4,238.5,531.4,237.3z"/>
	</g>
	<g>
		<g>
			
				<ellipse transform="matrix(0.7071 -0.7071 0.7071 0.7071 -32.7445 109.0871)" class="st29" cx="115.3" cy="94.1" rx="44.5" ry="44.5"/>
		</g>
		<g>
			<path class="st16" d="M115.3,50.6c24,0,43.5,19.5,43.5,43.5c0,24-19.5,43.5-43.5,43.5s-43.5-19.5-43.5-43.5     C71.8,70.1,91.3,50.6,115.3,50.6 M115.3,48.6c-25.1,0-45.5,20.4-45.5,45.5c0,25.1,20.4,45.5,45.5,45.5s45.5-20.4,45.5-45.5     C160.8,69,140.4,48.6,115.3,48.6L115.3,48.6z"/>
		</g>
	</g>
	<g>
		<g>
			
				<ellipse transform="matrix(0.7071 -0.7071 0.7071 0.7071 21.3506 239.6843)" class="st29" cx="300" cy="94.1" rx="44.5" ry="44.5"/>
		</g>
		<g>
			<path class="st26" d="M300,50.6c24,0,43.5,19.5,43.5,43.5c0,24-19.5,43.5-43.5,43.5s-43.5-19.5-43.5-43.5     C256.5,70.1,276,50.6,300,50.6 M300,48.6c-25.1,0-45.5,20.4-45.5,45.5c0,25.1,20.4,45.5,45.5,45.5s45.5-20.4,45.5-45.5     C345.5,69,325.1,48.6,300,48.6L300,48.6z"/>
		</g>
	</g>
	<g>
		<g>
			<path class="st29" d="M484.9,138.5c-24.5,0-44.5-19.9-44.5-44.5c0-24.5,19.9-44.5,44.5-44.5s44.5,19.9,44.5,44.5     C529.3,118.6,509.4,138.5,484.9,138.5z"/>
		</g>
		<g>
			<path class="st32" d="M484.9,50.6c24,0,43.5,19.5,43.5,43.5c0,24-19.5,43.5-43.5,43.5c-24,0-43.5-19.5-43.5-43.5     C441.4,70.1,460.9,50.6,484.9,50.6 M484.9,48.6c-25.1,0-45.5,20.4-45.5,45.5c0,25.1,20.4,45.5,45.5,45.5     c25.1,0,45.5-20.4,45.5-45.5C530.3,69,509.9,48.6,484.9,48.6L484.9,48.6z"/>
		</g>
	</g>
	<g>
		<path class="st15" d="M99,75.6c0.3-0.1,0.6-0.2,0.9-0.4c0.3-0.1,0.6-0.3,0.9-0.5c0.3-0.2,0.6-0.4,0.8-0.6c0.3-0.2,0.5-0.4,0.7-0.6    h1.5v9.9h-2.1v-7.1c-0.3,0.2-0.6,0.4-1,0.5c-0.4,0.2-0.7,0.3-1,0.4L99,75.6z"/>
		<path class="st15" d="M109.3,78.2h4.1v1.9h-4.1V78.2z"/>
		<path class="st15" d="M124.3,78.4c0,1.7-0.3,3-1,3.8c-0.6,0.9-1.5,1.3-2.6,1.3c-1.1,0-2-0.4-2.6-1.3c-0.6-0.9-1-2.2-1-3.8    c0-0.8,0.1-1.6,0.3-2.2s0.4-1.2,0.7-1.6c0.3-0.4,0.7-0.8,1.1-1s0.9-0.3,1.5-0.3c1.1,0,2,0.4,2.6,1.3    C124,75.5,124.3,76.8,124.3,78.4z M122.1,78.4c0-0.5,0-0.9-0.1-1.4c0-0.4-0.1-0.8-0.2-1.1s-0.2-0.5-0.4-0.7    c-0.2-0.2-0.4-0.2-0.7-0.2c-0.3,0-0.5,0.1-0.7,0.2c-0.2,0.2-0.3,0.4-0.4,0.7c-0.1,0.3-0.2,0.6-0.2,1.1c0,0.4-0.1,0.9-0.1,1.4    s0,0.9,0.1,1.4s0.1,0.8,0.2,1.1c0.1,0.3,0.3,0.5,0.4,0.7c0.2,0.2,0.4,0.2,0.7,0.2c0.3,0,0.5-0.1,0.7-0.2c0.2-0.2,0.3-0.4,0.4-0.7    c0.1-0.3,0.2-0.6,0.2-1.1C122.1,79.4,122.1,78.9,122.1,78.4z"/>
		<path class="st15" d="M129.7,80.5c0-0.3-0.1-0.5-0.2-0.7c-0.1-0.2-0.3-0.4-0.6-0.5s-0.7-0.3-1.2-0.3s-1.2-0.1-1.9-0.1    c0.1-0.9,0.2-1.8,0.3-2.7c0.1-0.9,0.1-1.8,0.2-2.6h5.4v1.8h-3.6c0,0.3,0,0.7-0.1,1c0,0.3,0,0.6-0.1,0.8c1.4,0.1,2.4,0.4,3.1,1    s1,1.3,1,2.3c0,0.5-0.1,0.9-0.2,1.3c-0.2,0.4-0.4,0.7-0.7,1s-0.7,0.5-1.2,0.7c-0.5,0.2-1.1,0.2-1.7,0.2c-0.3,0-0.5,0-0.8-0.1    c-0.3,0-0.6-0.1-0.8-0.1c-0.3-0.1-0.5-0.1-0.7-0.2c-0.2-0.1-0.4-0.1-0.5-0.2l0.4-1.8c0.2,0.1,0.6,0.2,0.9,0.3s0.9,0.2,1.4,0.2    c0.7,0,1.1-0.1,1.4-0.4C129.5,81.1,129.7,80.8,129.7,80.5z"/>
		<path class="st15" d="M95.1,98.3c-0.5-1-1-2.1-1.5-3.3c-0.5-1.3-1-2.7-1.4-4.2h2.3c0.1,0.4,0.2,0.8,0.3,1.2s0.3,0.9,0.4,1.3    s0.3,0.9,0.4,1.3c0.1,0.4,0.3,0.8,0.4,1.1c0.1-0.3,0.3-0.7,0.4-1.1c0.1-0.4,0.3-0.9,0.4-1.3s0.3-0.9,0.4-1.3    c0.1-0.4,0.2-0.8,0.3-1.2h2.2c-0.4,1.5-0.9,2.9-1.4,4.2c-0.5,1.3-1,2.4-1.5,3.3H95.1z"/>
		<path class="st15" d="M100.1,94.6c0-0.7,0.1-1.3,0.3-1.8c0.2-0.5,0.5-0.9,0.8-1.3s0.7-0.6,1.2-0.8c0.4-0.2,0.9-0.3,1.3-0.3    c1.1,0,1.9,0.3,2.5,1s0.9,1.6,0.9,2.9c0,0.1,0,0.3,0,0.4c0,0.1,0,0.3,0,0.4h-4.8c0,0.4,0.3,0.8,0.6,1c0.4,0.3,0.8,0.4,1.5,0.4    c0.4,0,0.8,0,1.2-0.1c0.4-0.1,0.7-0.2,0.9-0.3l0.3,1.7c-0.1,0.1-0.3,0.1-0.5,0.2s-0.4,0.1-0.6,0.2c-0.2,0-0.5,0.1-0.8,0.1    c-0.3,0-0.5,0-0.8,0c-0.7,0-1.3-0.1-1.8-0.3c-0.5-0.2-0.9-0.5-1.2-0.8s-0.6-0.8-0.7-1.2C100.2,95.7,100.1,95.2,100.1,94.6z     M105.1,93.8c0-0.2,0-0.4-0.1-0.5c-0.1-0.2-0.1-0.3-0.2-0.5c-0.1-0.1-0.2-0.2-0.4-0.3c-0.2-0.1-0.4-0.1-0.6-0.1    c-0.2,0-0.4,0-0.6,0.1s-0.3,0.2-0.4,0.3c-0.1,0.1-0.2,0.3-0.3,0.5c-0.1,0.2-0.1,0.4-0.1,0.5H105.1z"/>
		<path class="st15" d="M108.5,91.1c0.4-0.1,0.8-0.2,1.4-0.3c0.6-0.1,1.2-0.1,1.8-0.1c0.6,0,1.2,0.1,1.6,0.3s0.8,0.4,1,0.7    c0.2,0.3,0.4,0.7,0.5,1.1s0.2,0.9,0.2,1.4v4.2h-2.1v-4c0-0.7-0.1-1.2-0.3-1.5s-0.5-0.4-1-0.4c-0.2,0-0.3,0-0.5,0    c-0.2,0-0.3,0-0.5,0v5.8h-2.1V91.1z"/>
		<path class="st15" d="M123.3,98.1c-0.2,0.1-0.4,0.1-0.7,0.2c-0.2,0.1-0.5,0.1-0.8,0.1c-0.3,0-0.5,0.1-0.8,0.1c-0.3,0-0.6,0-0.8,0    c-0.6,0-1.2-0.1-1.7-0.3s-0.9-0.4-1.2-0.8c-0.3-0.3-0.6-0.7-0.8-1.2c-0.2-0.5-0.3-1-0.3-1.6c0-0.6,0.1-1.2,0.2-1.7    c0.2-0.5,0.4-0.9,0.7-1.3s0.6-0.6,1.1-0.8c0.4-0.2,0.9-0.3,1.4-0.3c0.3,0,0.6,0,0.8,0.1c0.2,0.1,0.5,0.1,0.7,0.2v-3.4l2.1-0.3    V98.1z M118.5,94.5c0,0.7,0.1,1.2,0.4,1.6c0.3,0.4,0.7,0.6,1.3,0.6c0.2,0,0.4,0,0.5,0c0.2,0,0.3,0,0.4,0v-3.9    c-0.1-0.1-0.3-0.2-0.5-0.2c-0.2-0.1-0.4-0.1-0.7-0.1C119,92.5,118.5,93.1,118.5,94.5z"/>
		<path class="st15" d="M127.7,90.6c0.6,0,1.2,0.1,1.6,0.2c0.4,0.1,0.8,0.3,1,0.6c0.3,0.3,0.4,0.6,0.5,1s0.2,0.8,0.2,1.3v4.4    c-0.3,0.1-0.7,0.1-1.3,0.2c-0.5,0.1-1.2,0.1-2,0.1c-0.5,0-0.9,0-1.3-0.1c-0.4-0.1-0.7-0.2-1-0.4c-0.3-0.2-0.5-0.5-0.7-0.8    c-0.2-0.3-0.2-0.7-0.2-1.2c0-0.4,0.1-0.8,0.3-1.1c0.2-0.3,0.4-0.5,0.7-0.7c0.3-0.2,0.6-0.3,1-0.4c0.4-0.1,0.8-0.1,1.2-0.1    c0.3,0,0.5,0,0.7,0c0.2,0,0.4,0.1,0.5,0.1v-0.2c0-0.4-0.1-0.7-0.3-0.9c-0.2-0.2-0.6-0.3-1.1-0.3c-0.4,0-0.7,0-1.1,0.1    c-0.4,0.1-0.7,0.1-0.9,0.2l-0.3-1.7c0.1,0,0.3-0.1,0.5-0.1s0.4-0.1,0.6-0.1c0.2,0,0.5-0.1,0.7-0.1S127.5,90.6,127.7,90.6z     M127.9,96.8c0.2,0,0.4,0,0.6,0c0.2,0,0.3,0,0.5,0v-1.6c-0.1,0-0.2,0-0.4-0.1c-0.2,0-0.3,0-0.5,0c-0.2,0-0.4,0-0.6,0    c-0.2,0-0.3,0.1-0.5,0.1c-0.1,0.1-0.2,0.2-0.3,0.3c-0.1,0.1-0.1,0.3-0.1,0.4c0,0.3,0.1,0.6,0.3,0.7    C127.2,96.8,127.5,96.8,127.9,96.8z"/>
		<path class="st15" d="M134.8,96.8c0.4,0,0.7,0,0.8-0.1c0.2-0.1,0.2-0.2,0.2-0.4c0-0.2-0.1-0.3-0.3-0.5c-0.2-0.1-0.5-0.3-1-0.4    c-0.3-0.1-0.6-0.3-0.9-0.4c-0.3-0.1-0.5-0.3-0.7-0.5s-0.3-0.4-0.4-0.7c-0.1-0.3-0.2-0.6-0.2-0.9c0-0.7,0.3-1.3,0.8-1.7    c0.5-0.4,1.2-0.6,2.2-0.6c0.5,0,0.9,0,1.3,0.1c0.4,0.1,0.8,0.2,1,0.3l-0.4,1.7c-0.2-0.1-0.5-0.2-0.8-0.2c-0.3-0.1-0.6-0.1-1-0.1    c-0.7,0-1,0.2-1,0.6c0,0.1,0,0.2,0,0.2c0,0.1,0.1,0.1,0.2,0.2c0.1,0.1,0.2,0.1,0.4,0.2c0.1,0.1,0.3,0.2,0.6,0.2    c0.5,0.2,0.9,0.3,1.2,0.5c0.3,0.2,0.5,0.4,0.7,0.5c0.2,0.2,0.3,0.4,0.4,0.6c0.1,0.2,0.1,0.5,0.1,0.8c0,0.7-0.3,1.3-0.8,1.7    c-0.6,0.4-1.3,0.6-2.4,0.6c-0.7,0-1.2-0.1-1.7-0.2c-0.4-0.1-0.8-0.2-0.9-0.3l0.4-1.7c0.4,0.1,0.7,0.3,1.1,0.3    C134,96.8,134.4,96.8,134.8,96.8z"/>
		<path class="st15" d="M96.9,109.5c0,0.6-0.1,1.1-0.2,1.6s-0.4,0.9-0.6,1.2c-0.3,0.3-0.6,0.6-1,0.8s-0.9,0.3-1.4,0.3    c-0.3,0-0.6,0-0.8-0.1c-0.3-0.1-0.5-0.1-0.7-0.2v2.8H90V106c0.2-0.1,0.4-0.1,0.7-0.2c0.2-0.1,0.5-0.1,0.8-0.1    c0.3,0,0.5-0.1,0.8-0.1c0.3,0,0.6,0,0.8,0c0.6,0,1.2,0.1,1.7,0.3c0.5,0.2,0.9,0.4,1.2,0.8c0.3,0.3,0.6,0.8,0.8,1.2    S96.9,108.9,96.9,109.5z M94.8,109.6c0-0.7-0.1-1.2-0.4-1.6c-0.3-0.4-0.7-0.6-1.3-0.6c-0.2,0-0.4,0-0.5,0c-0.2,0-0.3,0-0.4,0v3.8    c0.1,0.1,0.3,0.2,0.5,0.2c0.2,0.1,0.4,0.1,0.7,0.1C94.3,111.6,94.8,110.9,94.8,109.6z"/>
		<path class="st15" d="M105.3,109.5c0,0.6-0.1,1.1-0.3,1.6c-0.2,0.5-0.4,0.9-0.7,1.3c-0.3,0.3-0.7,0.6-1.2,0.8    c-0.5,0.2-1,0.3-1.5,0.3c-0.6,0-1.1-0.1-1.5-0.3c-0.5-0.2-0.8-0.5-1.2-0.8c-0.3-0.3-0.6-0.8-0.8-1.3c-0.2-0.5-0.3-1-0.3-1.6    c0-0.6,0.1-1.1,0.3-1.6s0.4-0.9,0.8-1.2c0.3-0.3,0.7-0.6,1.2-0.8c0.5-0.2,0.9-0.3,1.5-0.3c0.5,0,1,0.1,1.5,0.3s0.8,0.5,1.2,0.8    c0.3,0.3,0.6,0.8,0.8,1.2S105.3,108.9,105.3,109.5z M103.2,109.5c0-0.7-0.1-1.2-0.4-1.6s-0.6-0.6-1.1-0.6c-0.5,0-0.9,0.2-1.1,0.6    c-0.3,0.4-0.4,0.9-0.4,1.6s0.1,1.2,0.4,1.6c0.3,0.4,0.6,0.6,1.1,0.6c0.5,0,0.9-0.2,1.1-0.6C103,110.7,103.2,110.1,103.2,109.5z"/>
		<path class="st15" d="M111.2,107.6c-0.2,0-0.4-0.1-0.7-0.2c-0.3-0.1-0.5-0.1-0.8-0.1c-0.1,0-0.3,0-0.5,0c-0.2,0-0.3,0.1-0.4,0.1    v5.8h-2.1v-7.1c0.4-0.1,0.8-0.3,1.4-0.4c0.5-0.1,1.1-0.2,1.7-0.2c0.1,0,0.3,0,0.4,0c0.2,0,0.3,0,0.5,0.1s0.3,0.1,0.5,0.1    c0.2,0,0.3,0.1,0.4,0.1L111.2,107.6z"/>
		<path class="st15" d="M119.7,109.3c0-0.7-0.1-1.2-0.3-1.5c-0.2-0.3-0.5-0.4-0.9-0.4c-0.1,0-0.3,0-0.4,0c-0.1,0-0.3,0-0.4,0v5.8    h-2.1V106c0.2,0,0.4-0.1,0.6-0.2c0.2-0.1,0.5-0.1,0.8-0.1c0.3,0,0.6-0.1,0.8-0.1c0.3,0,0.6,0,0.8,0c0.5,0,1,0.1,1.3,0.2    c0.3,0.1,0.6,0.3,0.8,0.5c0.3-0.2,0.7-0.4,1.1-0.5s0.8-0.2,1.1-0.2c0.6,0,1.1,0.1,1.5,0.3s0.7,0.4,0.9,0.7    c0.2,0.3,0.4,0.7,0.5,1.1s0.1,0.9,0.1,1.4v4.2h-2.1v-4c0-0.7-0.1-1.2-0.3-1.5c-0.2-0.3-0.5-0.4-0.9-0.4c-0.1,0-0.3,0-0.5,0.1    c-0.2,0.1-0.4,0.1-0.5,0.2c0.1,0.2,0.1,0.5,0.1,0.7c0,0.2,0,0.5,0,0.8v4.1h-2.1V109.3z"/>
		<path class="st15" d="M127.3,109.6c0-0.7,0.1-1.3,0.3-1.8c0.2-0.5,0.5-0.9,0.8-1.3s0.7-0.6,1.2-0.8c0.4-0.2,0.9-0.3,1.3-0.3    c1.1,0,1.9,0.3,2.5,1s0.9,1.6,0.9,2.9c0,0.1,0,0.3,0,0.4c0,0.1,0,0.3,0,0.4h-4.8c0,0.4,0.3,0.8,0.6,1c0.4,0.3,0.8,0.4,1.5,0.4    c0.4,0,0.8,0,1.2-0.1c0.4-0.1,0.7-0.2,0.9-0.3l0.3,1.7c-0.1,0.1-0.3,0.1-0.5,0.2s-0.4,0.1-0.6,0.2c-0.2,0-0.5,0.1-0.8,0.1    c-0.3,0-0.5,0-0.8,0c-0.7,0-1.3-0.1-1.8-0.3c-0.5-0.2-0.9-0.5-1.2-0.8s-0.6-0.8-0.7-1.2C127.4,110.6,127.3,110.1,127.3,109.6z     M133.1,104l-0.8,0.9l-1.4-1.1l-1.4,1.1l-0.8-0.9l2.3-2L133.1,104z M132.3,108.7c0-0.2,0-0.4-0.1-0.5c-0.1-0.2-0.1-0.3-0.2-0.5    c-0.1-0.1-0.2-0.2-0.4-0.3c-0.2-0.1-0.4-0.1-0.6-0.1c-0.2,0-0.4,0-0.6,0.1s-0.3,0.2-0.4,0.3c-0.1,0.1-0.2,0.3-0.3,0.5    c-0.1,0.2-0.1,0.4-0.1,0.5H132.3z"/>
		<path class="st15" d="M137.9,111.7c0.4,0,0.7,0,0.8-0.1c0.2-0.1,0.2-0.2,0.2-0.4c0-0.2-0.1-0.3-0.3-0.5c-0.2-0.1-0.5-0.3-1-0.4    c-0.3-0.1-0.6-0.3-0.9-0.4c-0.3-0.1-0.5-0.3-0.7-0.5s-0.3-0.4-0.4-0.7c-0.1-0.3-0.2-0.6-0.2-0.9c0-0.7,0.3-1.3,0.8-1.7    c0.5-0.4,1.2-0.6,2.2-0.6c0.5,0,0.9,0,1.3,0.1c0.4,0.1,0.8,0.2,1,0.3l-0.4,1.7c-0.2-0.1-0.5-0.2-0.8-0.2c-0.3-0.1-0.6-0.1-1-0.1    c-0.7,0-1,0.2-1,0.6c0,0.1,0,0.2,0,0.2c0,0.1,0.1,0.1,0.2,0.2c0.1,0.1,0.2,0.1,0.4,0.2c0.1,0.1,0.3,0.2,0.6,0.2    c0.5,0.2,0.9,0.3,1.2,0.5c0.3,0.2,0.5,0.4,0.7,0.5c0.2,0.2,0.3,0.4,0.4,0.6c0.1,0.2,0.1,0.5,0.1,0.8c0,0.7-0.3,1.3-0.8,1.7    c-0.6,0.4-1.3,0.6-2.4,0.6c-0.7,0-1.2-0.1-1.7-0.2c-0.4-0.1-0.8-0.2-0.9-0.3l0.4-1.7c0.4,0.1,0.7,0.3,1.1,0.3    C137.1,111.7,137.5,111.7,137.9,111.7z"/>
	</g>
	<g>
		<path class="st15" d="M286.9,77.1c0.6,0,1.1,0.1,1.6,0.3c0.4,0.2,0.8,0.4,1.1,0.7c0.3,0.3,0.5,0.6,0.6,1c0.1,0.4,0.2,0.8,0.2,1.2    c0,0.4-0.1,0.8-0.2,1.2c-0.1,0.4-0.3,0.8-0.6,1.1c-0.3,0.3-0.6,0.6-1.1,0.8c-0.4,0.2-0.9,0.3-1.5,0.3c-1.2,0-2.1-0.4-2.7-1.1    c-0.6-0.8-0.9-1.8-0.9-3.1c0-1,0.1-1.8,0.4-2.5c0.3-0.7,0.7-1.4,1.3-1.9s1.2-0.9,2-1.1c0.8-0.3,1.7-0.4,2.6-0.4    c0,0.3,0,0.6,0.1,0.9c0,0.3,0,0.6,0.1,0.9c-0.5,0-0.9,0.1-1.4,0.1c-0.4,0.1-0.8,0.2-1.2,0.4c-0.3,0.2-0.7,0.4-0.9,0.7    c-0.3,0.3-0.5,0.6-0.6,1c0.2-0.1,0.4-0.2,0.6-0.2S286.7,77.1,286.9,77.1z M286.6,78.7c-0.2,0-0.4,0-0.7,0.1s-0.4,0.1-0.6,0.2    c0,0,0,0.1,0,0.2c0,0.1,0,0.1,0,0.2c0,0.3,0,0.7,0.1,1c0,0.3,0.1,0.6,0.2,0.8c0.1,0.2,0.3,0.4,0.5,0.5s0.4,0.2,0.7,0.2    c0.2,0,0.4,0,0.6-0.1s0.3-0.2,0.4-0.4c0.1-0.2,0.2-0.3,0.2-0.5s0.1-0.4,0.1-0.5c0-0.5-0.1-0.9-0.4-1.1    C287.6,78.9,287.2,78.7,286.6,78.7z"/>
		<path class="st15" d="M294,78.2h4.1v1.9H294V78.2z"/>
		<path class="st15" d="M302.4,75.6c0.3-0.1,0.6-0.2,0.9-0.4s0.6-0.3,0.9-0.5c0.3-0.2,0.6-0.4,0.8-0.6c0.3-0.2,0.5-0.4,0.7-0.6h1.5    v9.9H305v-7.1c-0.3,0.2-0.6,0.4-1,0.5c-0.4,0.2-0.7,0.3-1,0.4L302.4,75.6z"/>
		<path class="st15" d="M316.9,78.4c0,1.7-0.3,3-1,3.8c-0.6,0.9-1.5,1.3-2.6,1.3s-2-0.4-2.6-1.3c-0.6-0.9-1-2.2-1-3.8    c0-0.8,0.1-1.6,0.3-2.2c0.2-0.6,0.4-1.2,0.7-1.6c0.3-0.4,0.7-0.8,1.1-1s0.9-0.3,1.5-0.3c1.1,0,2,0.4,2.6,1.3    S316.9,76.8,316.9,78.4z M314.7,78.4c0-0.5,0-0.9-0.1-1.4c0-0.4-0.1-0.8-0.2-1.1c-0.1-0.3-0.2-0.5-0.4-0.7    c-0.2-0.2-0.4-0.2-0.7-0.2c-0.3,0-0.5,0.1-0.7,0.2c-0.2,0.2-0.3,0.4-0.4,0.7c-0.1,0.3-0.2,0.6-0.2,1.1c0,0.4-0.1,0.9-0.1,1.4    s0,0.9,0.1,1.4c0,0.4,0.1,0.8,0.2,1.1c0.1,0.3,0.3,0.5,0.4,0.7c0.2,0.2,0.4,0.2,0.7,0.2c0.3,0,0.5-0.1,0.7-0.2    c0.2-0.2,0.3-0.4,0.4-0.7c0.1-0.3,0.2-0.6,0.2-1.1S314.7,78.9,314.7,78.4z"/>
		<path class="st15" d="M279.8,98.3c-0.5-1-1-2.1-1.5-3.3c-0.5-1.3-1-2.7-1.4-4.2h2.3c0.1,0.4,0.2,0.8,0.3,1.2s0.3,0.9,0.4,1.3    s0.3,0.9,0.4,1.3c0.1,0.4,0.3,0.8,0.4,1.1c0.1-0.3,0.3-0.7,0.4-1.1c0.1-0.4,0.3-0.9,0.4-1.3s0.3-0.9,0.4-1.3    c0.1-0.4,0.2-0.8,0.3-1.2h2.2c-0.4,1.5-0.9,2.9-1.4,4.2c-0.5,1.3-1,2.4-1.5,3.3H279.8z"/>
		<path class="st15" d="M284.8,94.6c0-0.7,0.1-1.3,0.3-1.8c0.2-0.5,0.5-0.9,0.8-1.3s0.7-0.6,1.2-0.8c0.4-0.2,0.9-0.3,1.3-0.3    c1.1,0,1.9,0.3,2.5,1s0.9,1.6,0.9,2.9c0,0.1,0,0.3,0,0.4c0,0.1,0,0.3,0,0.4H287c0,0.4,0.3,0.8,0.6,1c0.4,0.3,0.8,0.4,1.5,0.4    c0.4,0,0.8,0,1.2-0.1c0.4-0.1,0.7-0.2,0.9-0.3l0.3,1.7c-0.1,0.1-0.3,0.1-0.5,0.2s-0.4,0.1-0.6,0.2c-0.2,0-0.5,0.1-0.8,0.1    c-0.3,0-0.5,0-0.8,0c-0.7,0-1.3-0.1-1.8-0.3c-0.5-0.2-0.9-0.5-1.2-0.8s-0.6-0.8-0.7-1.2C284.8,95.7,284.8,95.2,284.8,94.6z     M289.8,93.8c0-0.2,0-0.4-0.1-0.5c-0.1-0.2-0.1-0.3-0.2-0.5c-0.1-0.1-0.2-0.2-0.4-0.3c-0.2-0.1-0.4-0.1-0.6-0.1    c-0.2,0-0.4,0-0.6,0.1s-0.3,0.2-0.4,0.3c-0.1,0.1-0.2,0.3-0.3,0.5c-0.1,0.2-0.1,0.4-0.1,0.5H289.8z"/>
		<path class="st15" d="M293.2,91.1c0.4-0.1,0.8-0.2,1.4-0.3c0.6-0.1,1.2-0.1,1.8-0.1c0.6,0,1.2,0.1,1.6,0.3c0.4,0.2,0.8,0.4,1,0.7    c0.2,0.3,0.4,0.7,0.5,1.1s0.2,0.9,0.2,1.4v4.2h-2.1v-4c0-0.7-0.1-1.2-0.3-1.5s-0.5-0.4-1-0.4c-0.2,0-0.3,0-0.5,0    c-0.2,0-0.3,0-0.5,0v5.8h-2.1V91.1z"/>
		<path class="st15" d="M308,98.1c-0.2,0.1-0.4,0.1-0.7,0.2s-0.5,0.1-0.8,0.1c-0.3,0-0.5,0.1-0.8,0.1c-0.3,0-0.6,0-0.8,0    c-0.6,0-1.2-0.1-1.7-0.3c-0.5-0.2-0.9-0.4-1.2-0.8c-0.3-0.3-0.6-0.7-0.8-1.2c-0.2-0.5-0.3-1-0.3-1.6c0-0.6,0.1-1.2,0.2-1.7    c0.2-0.5,0.4-0.9,0.7-1.3s0.6-0.6,1.1-0.8s0.9-0.3,1.4-0.3c0.3,0,0.6,0,0.8,0.1c0.2,0.1,0.5,0.1,0.7,0.2v-3.4l2.1-0.3V98.1z     M303.2,94.5c0,0.7,0.1,1.2,0.4,1.6c0.3,0.4,0.7,0.6,1.3,0.6c0.2,0,0.4,0,0.5,0c0.2,0,0.3,0,0.4,0v-3.9c-0.1-0.1-0.3-0.2-0.5-0.2    c-0.2-0.1-0.4-0.1-0.7-0.1C303.7,92.5,303.2,93.1,303.2,94.5z"/>
		<path class="st15" d="M312.4,90.6c0.6,0,1.2,0.1,1.6,0.2c0.4,0.1,0.8,0.3,1,0.6c0.3,0.3,0.4,0.6,0.5,1c0.1,0.4,0.2,0.8,0.2,1.3    v4.4c-0.3,0.1-0.7,0.1-1.3,0.2c-0.5,0.1-1.2,0.1-2,0.1c-0.5,0-0.9,0-1.3-0.1c-0.4-0.1-0.7-0.2-1-0.4c-0.3-0.2-0.5-0.5-0.7-0.8    c-0.2-0.3-0.2-0.7-0.2-1.2c0-0.4,0.1-0.8,0.3-1.1s0.4-0.5,0.7-0.7c0.3-0.2,0.6-0.3,1-0.4c0.4-0.1,0.8-0.1,1.2-0.1    c0.3,0,0.5,0,0.7,0s0.4,0.1,0.5,0.1v-0.2c0-0.4-0.1-0.7-0.3-0.9c-0.2-0.2-0.6-0.3-1.1-0.3c-0.4,0-0.7,0-1.1,0.1    c-0.4,0.1-0.7,0.1-0.9,0.2l-0.3-1.7c0.1,0,0.3-0.1,0.5-0.1s0.4-0.1,0.6-0.1c0.2,0,0.5-0.1,0.7-0.1S312.2,90.6,312.4,90.6z     M312.6,96.8c0.2,0,0.4,0,0.6,0c0.2,0,0.3,0,0.5,0v-1.6c-0.1,0-0.2,0-0.4-0.1c-0.2,0-0.3,0-0.5,0c-0.2,0-0.4,0-0.6,0    c-0.2,0-0.3,0.1-0.5,0.1c-0.1,0.1-0.2,0.2-0.3,0.3c-0.1,0.1-0.1,0.3-0.1,0.4c0,0.3,0.1,0.6,0.3,0.7    C311.9,96.8,312.2,96.8,312.6,96.8z"/>
		<path class="st15" d="M319.5,96.8c0.4,0,0.7,0,0.8-0.1c0.2-0.1,0.2-0.2,0.2-0.4c0-0.2-0.1-0.3-0.3-0.5c-0.2-0.1-0.5-0.3-1-0.4    c-0.3-0.1-0.6-0.3-0.9-0.4c-0.3-0.1-0.5-0.3-0.7-0.5c-0.2-0.2-0.3-0.4-0.4-0.7c-0.1-0.3-0.2-0.6-0.2-0.9c0-0.7,0.3-1.3,0.8-1.7    c0.5-0.4,1.2-0.6,2.2-0.6c0.5,0,0.9,0,1.3,0.1s0.8,0.2,1,0.3l-0.4,1.7c-0.2-0.1-0.5-0.2-0.8-0.2c-0.3-0.1-0.6-0.1-1-0.1    c-0.7,0-1,0.2-1,0.6c0,0.1,0,0.2,0,0.2c0,0.1,0.1,0.1,0.2,0.2c0.1,0.1,0.2,0.1,0.4,0.2c0.1,0.1,0.3,0.2,0.6,0.2    c0.5,0.2,0.9,0.3,1.2,0.5c0.3,0.2,0.5,0.4,0.7,0.5c0.2,0.2,0.3,0.4,0.4,0.6c0.1,0.2,0.1,0.5,0.1,0.8c0,0.7-0.3,1.3-0.8,1.7    c-0.6,0.4-1.3,0.6-2.4,0.6c-0.7,0-1.2-0.1-1.7-0.2c-0.4-0.1-0.8-0.2-0.9-0.3l0.4-1.7c0.4,0.1,0.7,0.3,1.1,0.3    C318.7,96.8,319.1,96.8,319.5,96.8z"/>
		<path class="st15" d="M281.6,109.5c0,0.6-0.1,1.1-0.2,1.6s-0.4,0.9-0.6,1.2c-0.3,0.3-0.6,0.6-1,0.8s-0.9,0.3-1.4,0.3    c-0.3,0-0.6,0-0.8-0.1c-0.3-0.1-0.5-0.1-0.7-0.2v2.8h-2.1V106c0.2-0.1,0.4-0.1,0.7-0.2c0.2-0.1,0.5-0.1,0.8-0.1    c0.3,0,0.5-0.1,0.8-0.1c0.3,0,0.6,0,0.8,0c0.6,0,1.2,0.1,1.7,0.3c0.5,0.2,0.9,0.4,1.2,0.8c0.3,0.3,0.6,0.8,0.8,1.2    S281.6,108.9,281.6,109.5z M279.5,109.6c0-0.7-0.1-1.2-0.4-1.6c-0.3-0.4-0.7-0.6-1.3-0.6c-0.2,0-0.4,0-0.5,0c-0.2,0-0.3,0-0.4,0    v3.8c0.1,0.1,0.3,0.2,0.5,0.2c0.2,0.1,0.4,0.1,0.7,0.1C279,111.6,279.5,110.9,279.5,109.6z"/>
		<path class="st15" d="M290,109.5c0,0.6-0.1,1.1-0.3,1.6c-0.2,0.5-0.4,0.9-0.7,1.3c-0.3,0.3-0.7,0.6-1.2,0.8    c-0.5,0.2-1,0.3-1.5,0.3c-0.6,0-1.1-0.1-1.5-0.3c-0.5-0.2-0.8-0.5-1.2-0.8c-0.3-0.3-0.6-0.8-0.8-1.3c-0.2-0.5-0.3-1-0.3-1.6    c0-0.6,0.1-1.1,0.3-1.6s0.4-0.9,0.8-1.2c0.3-0.3,0.7-0.6,1.2-0.8c0.5-0.2,0.9-0.3,1.5-0.3c0.5,0,1,0.1,1.5,0.3s0.8,0.5,1.2,0.8    c0.3,0.3,0.6,0.8,0.8,1.2S290,108.9,290,109.5z M287.9,109.5c0-0.7-0.1-1.2-0.4-1.6s-0.6-0.6-1.1-0.6c-0.5,0-0.9,0.2-1.1,0.6    c-0.3,0.4-0.4,0.9-0.4,1.6s0.1,1.2,0.4,1.6c0.3,0.4,0.6,0.6,1.1,0.6c0.5,0,0.9-0.2,1.1-0.6C287.7,110.7,287.9,110.1,287.9,109.5z"/>
		<path class="st15" d="M295.9,107.6c-0.2,0-0.4-0.1-0.7-0.2c-0.3-0.1-0.5-0.1-0.8-0.1c-0.1,0-0.3,0-0.5,0c-0.2,0-0.3,0.1-0.4,0.1    v5.8h-2.1v-7.1c0.4-0.1,0.8-0.3,1.4-0.4c0.5-0.1,1.1-0.2,1.7-0.2c0.1,0,0.3,0,0.4,0c0.2,0,0.3,0,0.5,0.1c0.2,0,0.3,0.1,0.5,0.1    c0.2,0,0.3,0.1,0.4,0.1L295.9,107.6z"/>
		<path class="st15" d="M304.4,109.3c0-0.7-0.1-1.2-0.3-1.5s-0.5-0.4-0.9-0.4c-0.1,0-0.3,0-0.4,0c-0.1,0-0.3,0-0.4,0v5.8h-2.1V106    c0.2,0,0.4-0.1,0.6-0.2c0.2-0.1,0.5-0.1,0.8-0.1c0.3,0,0.6-0.1,0.8-0.1c0.3,0,0.6,0,0.8,0c0.5,0,1,0.1,1.3,0.2s0.6,0.3,0.8,0.5    c0.3-0.2,0.7-0.4,1.1-0.5s0.8-0.2,1.1-0.2c0.6,0,1.1,0.1,1.5,0.3c0.4,0.2,0.7,0.4,0.9,0.7c0.2,0.3,0.4,0.7,0.5,1.1    s0.1,0.9,0.1,1.4v4.2h-2.1v-4c0-0.7-0.1-1.2-0.3-1.5c-0.2-0.3-0.5-0.4-0.9-0.4c-0.1,0-0.3,0-0.5,0.1c-0.2,0.1-0.4,0.1-0.5,0.2    c0.1,0.2,0.1,0.5,0.1,0.7c0,0.2,0,0.5,0,0.8v4.1h-2.1V109.3z"/>
		<path class="st15" d="M312,109.6c0-0.7,0.1-1.3,0.3-1.8c0.2-0.5,0.5-0.9,0.8-1.3s0.7-0.6,1.2-0.8c0.4-0.2,0.9-0.3,1.3-0.3    c1.1,0,1.9,0.3,2.5,1s0.9,1.6,0.9,2.9c0,0.1,0,0.3,0,0.4s0,0.3,0,0.4h-4.8c0,0.4,0.3,0.8,0.6,1c0.4,0.3,0.8,0.4,1.5,0.4    c0.4,0,0.8,0,1.2-0.1c0.4-0.1,0.7-0.2,0.9-0.3l0.3,1.7c-0.1,0.1-0.3,0.1-0.5,0.2c-0.2,0.1-0.4,0.1-0.6,0.2c-0.2,0-0.5,0.1-0.8,0.1    c-0.3,0-0.5,0-0.8,0c-0.7,0-1.3-0.1-1.8-0.3s-0.9-0.5-1.2-0.8s-0.6-0.8-0.7-1.2S312,110.1,312,109.6z M317.7,104L317,105l-1.4-1.1    l-1.4,1.1l-0.8-0.9l2.3-2L317.7,104z M317,108.7c0-0.2,0-0.4-0.1-0.5c-0.1-0.2-0.1-0.3-0.2-0.5c-0.1-0.1-0.2-0.2-0.4-0.3    c-0.2-0.1-0.4-0.1-0.6-0.1c-0.2,0-0.4,0-0.6,0.1s-0.3,0.2-0.4,0.3c-0.1,0.1-0.2,0.3-0.3,0.5c-0.1,0.2-0.1,0.4-0.1,0.5H317z"/>
		<path class="st15" d="M322.6,111.7c0.4,0,0.7,0,0.8-0.1c0.2-0.1,0.2-0.2,0.2-0.4c0-0.2-0.1-0.3-0.3-0.5c-0.2-0.1-0.5-0.3-1-0.4    c-0.3-0.1-0.6-0.3-0.9-0.4c-0.3-0.1-0.5-0.3-0.7-0.5c-0.2-0.2-0.3-0.4-0.4-0.7c-0.1-0.3-0.2-0.6-0.2-0.9c0-0.7,0.3-1.3,0.8-1.7    c0.5-0.4,1.2-0.6,2.2-0.6c0.5,0,0.9,0,1.3,0.1s0.8,0.2,1,0.3l-0.4,1.7c-0.2-0.1-0.5-0.2-0.8-0.2c-0.3-0.1-0.6-0.1-1-0.1    c-0.7,0-1,0.2-1,0.6c0,0.1,0,0.2,0,0.2c0,0.1,0.1,0.1,0.2,0.2c0.1,0.1,0.2,0.1,0.4,0.2c0.1,0.1,0.3,0.2,0.6,0.2    c0.5,0.2,0.9,0.3,1.2,0.5c0.3,0.2,0.5,0.4,0.7,0.5c0.2,0.2,0.3,0.4,0.4,0.6c0.1,0.2,0.1,0.5,0.1,0.8c0,0.7-0.3,1.3-0.8,1.7    c-0.6,0.4-1.3,0.6-2.4,0.6c-0.7,0-1.2-0.1-1.7-0.2c-0.4-0.1-0.8-0.2-0.9-0.3l0.4-1.7c0.4,0.1,0.7,0.3,1.1,0.3    C321.8,111.7,322.2,111.7,322.6,111.7z"/>
	</g>
	<g>
		<path class="st15" d="M455.6,79.4c0-0.7-0.1-1.2-0.3-1.5s-0.5-0.4-0.9-0.4c-0.1,0-0.3,0-0.4,0c-0.1,0-0.3,0-0.4,0v5.8h-2.1v-7.3    c0.2,0,0.4-0.1,0.6-0.2c0.2-0.1,0.5-0.1,0.8-0.1c0.3,0,0.6-0.1,0.8-0.1c0.3,0,0.6,0,0.8,0c0.5,0,1,0.1,1.3,0.2s0.6,0.3,0.8,0.5    c0.3-0.2,0.7-0.4,1.1-0.5s0.8-0.2,1.1-0.2c0.6,0,1.1,0.1,1.5,0.3c0.4,0.2,0.7,0.4,0.9,0.7c0.2,0.3,0.4,0.7,0.5,1.1    s0.1,0.9,0.1,1.4v4.2h-2.1v-4c0-0.7-0.1-1.2-0.3-1.5c-0.2-0.3-0.5-0.4-0.9-0.4c-0.1,0-0.3,0-0.5,0.1c-0.2,0.1-0.4,0.1-0.5,0.2    c0.1,0.2,0.1,0.5,0.1,0.7c0,0.2,0,0.5,0,0.8v4.1h-2.1V79.4z"/>
		<path class="st15" d="M466.2,75.7c0.6,0,1.2,0.1,1.6,0.2c0.4,0.1,0.8,0.3,1,0.6c0.3,0.3,0.4,0.6,0.5,1c0.1,0.4,0.2,0.8,0.2,1.3    v4.4c-0.3,0.1-0.7,0.1-1.3,0.2c-0.5,0.1-1.2,0.1-2,0.1c-0.5,0-0.9,0-1.3-0.1c-0.4-0.1-0.7-0.2-1-0.4c-0.3-0.2-0.5-0.5-0.7-0.8    c-0.2-0.3-0.2-0.7-0.2-1.2c0-0.4,0.1-0.8,0.3-1.1s0.4-0.5,0.7-0.7c0.3-0.2,0.6-0.3,1-0.4c0.4-0.1,0.8-0.1,1.2-0.1    c0.3,0,0.5,0,0.7,0s0.4,0.1,0.5,0.1v-0.2c0-0.4-0.1-0.7-0.3-0.9c-0.2-0.2-0.6-0.3-1.1-0.3c-0.4,0-0.7,0-1.1,0.1    c-0.4,0.1-0.7,0.1-0.9,0.2l-0.3-1.7c0.1,0,0.3-0.1,0.5-0.1s0.4-0.1,0.6-0.1c0.2,0,0.5-0.1,0.7-0.1S466,75.7,466.2,75.7z     M466.4,81.9c0.2,0,0.4,0,0.6,0c0.2,0,0.3,0,0.5,0v-1.6c-0.1,0-0.2,0-0.4-0.1c-0.2,0-0.3,0-0.5,0c-0.2,0-0.4,0-0.6,0    c-0.2,0-0.3,0.1-0.5,0.1c-0.1,0.1-0.2,0.2-0.3,0.3c-0.1,0.1-0.1,0.3-0.1,0.4c0,0.3,0.1,0.6,0.3,0.7    C465.7,81.9,466,81.9,466.4,81.9z"/>
		<path class="st15" d="M473.5,73.7c0,0.4-0.1,0.7-0.4,0.9c-0.3,0.2-0.6,0.3-0.9,0.3s-0.6-0.1-0.9-0.3s-0.4-0.5-0.4-0.9    c0-0.4,0.1-0.7,0.4-0.9s0.6-0.3,0.9-0.3s0.6,0.1,0.9,0.3C473.3,73,473.5,73.3,473.5,73.7z M473.3,83.4h-2.1v-7.5h2.1V83.4z"/>
		<path class="st15" d="M477.1,81.9c0.4,0,0.7,0,0.8-0.1c0.2-0.1,0.2-0.2,0.2-0.4c0-0.2-0.1-0.3-0.3-0.5c-0.2-0.1-0.5-0.3-1-0.4    c-0.3-0.1-0.6-0.3-0.9-0.4c-0.3-0.1-0.5-0.3-0.7-0.5c-0.2-0.2-0.3-0.4-0.4-0.7c-0.1-0.3-0.2-0.6-0.2-0.9c0-0.7,0.3-1.3,0.8-1.7    c0.5-0.4,1.2-0.6,2.2-0.6c0.5,0,0.9,0,1.3,0.1s0.8,0.2,1,0.3l-0.4,1.7c-0.2-0.1-0.5-0.2-0.8-0.2c-0.3-0.1-0.6-0.1-1-0.1    c-0.7,0-1,0.2-1,0.6c0,0.1,0,0.2,0,0.2c0,0.1,0.1,0.1,0.2,0.2c0.1,0.1,0.2,0.1,0.4,0.2c0.1,0.1,0.3,0.2,0.6,0.2    c0.5,0.2,0.9,0.3,1.2,0.5c0.3,0.2,0.5,0.4,0.7,0.5c0.2,0.2,0.3,0.4,0.4,0.6c0.1,0.2,0.1,0.5,0.1,0.8c0,0.7-0.3,1.3-0.8,1.7    c-0.6,0.4-1.3,0.6-2.4,0.6c-0.7,0-1.2-0.1-1.7-0.2c-0.4-0.1-0.8-0.2-0.9-0.3l0.4-1.7c0.4,0.1,0.7,0.3,1.1,0.3    C476.4,81.8,476.8,81.9,477.1,81.9z"/>
		<path class="st15" d="M491.4,83.2c-0.2,0.1-0.4,0.1-0.7,0.2s-0.5,0.1-0.8,0.1c-0.3,0-0.5,0.1-0.8,0.1c-0.3,0-0.6,0-0.8,0    c-0.6,0-1.2-0.1-1.7-0.3c-0.5-0.2-0.9-0.4-1.2-0.8c-0.3-0.3-0.6-0.7-0.8-1.2c-0.2-0.5-0.3-1-0.3-1.6c0-0.6,0.1-1.2,0.2-1.7    c0.2-0.5,0.4-0.9,0.7-1.3s0.6-0.6,1.1-0.8s0.9-0.3,1.4-0.3c0.3,0,0.6,0,0.8,0.1c0.2,0.1,0.5,0.1,0.7,0.2v-3.4l2.1-0.3V83.2z     M486.6,79.6c0,0.7,0.1,1.2,0.4,1.6c0.3,0.4,0.7,0.6,1.3,0.6c0.2,0,0.4,0,0.5,0c0.2,0,0.3,0,0.4,0v-3.9c-0.1-0.1-0.3-0.2-0.5-0.2    c-0.2-0.1-0.4-0.1-0.7-0.1C487.1,77.5,486.6,78.2,486.6,79.6z"/>
		<path class="st15" d="M492.8,79.7c0-0.7,0.1-1.3,0.3-1.8c0.2-0.5,0.5-0.9,0.8-1.3s0.7-0.6,1.2-0.8c0.4-0.2,0.9-0.3,1.3-0.3    c1.1,0,1.9,0.3,2.5,1s0.9,1.6,0.9,2.9c0,0.1,0,0.3,0,0.4s0,0.3,0,0.4H495c0,0.4,0.3,0.8,0.6,1c0.4,0.3,0.8,0.4,1.5,0.4    c0.4,0,0.8,0,1.2-0.1c0.4-0.1,0.7-0.2,0.9-0.3l0.3,1.7c-0.1,0.1-0.3,0.1-0.5,0.2c-0.2,0.1-0.4,0.1-0.6,0.2c-0.2,0-0.5,0.1-0.8,0.1    c-0.3,0-0.5,0-0.8,0c-0.7,0-1.3-0.1-1.8-0.3s-0.9-0.5-1.2-0.8s-0.6-0.8-0.7-1.2S492.8,80.3,492.8,79.7z M497.8,78.9    c0-0.2,0-0.4-0.1-0.5c-0.1-0.2-0.1-0.3-0.2-0.5c-0.1-0.1-0.2-0.2-0.4-0.3c-0.2-0.1-0.4-0.1-0.6-0.1c-0.2,0-0.4,0-0.6,0.1    s-0.3,0.2-0.4,0.3c-0.1,0.1-0.2,0.3-0.3,0.5c-0.1,0.2-0.1,0.4-0.1,0.5H497.8z"/>
		<path class="st15" d="M504.3,75.6c0.3-0.1,0.6-0.2,0.9-0.4s0.6-0.3,0.9-0.5c0.3-0.2,0.6-0.4,0.8-0.6c0.3-0.2,0.5-0.4,0.7-0.6h1.5    v9.9H507v-7.1c-0.3,0.2-0.6,0.4-1,0.5c-0.4,0.2-0.7,0.3-1,0.4L504.3,75.6z"/>
		<path class="st15" d="M518.8,78.4c0,1.7-0.3,3-1,3.8c-0.6,0.9-1.5,1.3-2.6,1.3s-2-0.4-2.6-1.3c-0.6-0.9-1-2.2-1-3.8    c0-0.8,0.1-1.6,0.3-2.2c0.2-0.6,0.4-1.2,0.7-1.6c0.3-0.4,0.7-0.8,1.1-1s0.9-0.3,1.5-0.3c1.1,0,2,0.4,2.6,1.3    S518.8,76.8,518.8,78.4z M516.7,78.4c0-0.5,0-0.9-0.1-1.4c0-0.4-0.1-0.8-0.2-1.1c-0.1-0.3-0.2-0.5-0.4-0.7    c-0.2-0.2-0.4-0.2-0.7-0.2c-0.3,0-0.5,0.1-0.7,0.2c-0.2,0.2-0.3,0.4-0.4,0.7c-0.1,0.3-0.2,0.6-0.2,1.1c0,0.4-0.1,0.9-0.1,1.4    s0,0.9,0.1,1.4c0,0.4,0.1,0.8,0.2,1.1c0.1,0.3,0.3,0.5,0.4,0.7c0.2,0.2,0.4,0.2,0.7,0.2c0.3,0,0.5-0.1,0.7-0.2    c0.2-0.2,0.3-0.4,0.4-0.7c0.1-0.3,0.2-0.6,0.2-1.1S516.7,78.9,516.7,78.4z"/>
		<path class="st15" d="M464.7,98.3c-0.5-1-1-2.1-1.5-3.3c-0.5-1.3-1-2.7-1.4-4.2h2.3c0.1,0.4,0.2,0.8,0.3,1.2    c0.1,0.4,0.3,0.9,0.4,1.3c0.1,0.4,0.3,0.9,0.4,1.3c0.1,0.4,0.3,0.8,0.4,1.1c0.1-0.3,0.3-0.7,0.4-1.1c0.1-0.4,0.3-0.9,0.4-1.3    c0.1-0.4,0.3-0.9,0.4-1.3c0.1-0.4,0.2-0.8,0.3-1.2h2.2c-0.5,1.5-0.9,2.9-1.4,4.2c-0.5,1.3-1,2.4-1.5,3.3H464.7z"/>
		<path class="st15" d="M469.6,94.6c0-0.7,0.1-1.3,0.3-1.8c0.2-0.5,0.5-0.9,0.8-1.3s0.7-0.6,1.2-0.8c0.4-0.2,0.9-0.3,1.3-0.3    c1.1,0,1.9,0.3,2.5,1s0.9,1.6,0.9,2.9c0,0.1,0,0.3,0,0.4s0,0.3,0,0.4h-4.8c0,0.4,0.3,0.8,0.6,1c0.4,0.3,0.8,0.4,1.5,0.4    c0.4,0,0.8,0,1.2-0.1c0.4-0.1,0.7-0.2,0.9-0.3l0.3,1.7c-0.1,0.1-0.3,0.1-0.5,0.2c-0.2,0.1-0.4,0.1-0.6,0.2c-0.2,0-0.5,0.1-0.8,0.1    c-0.3,0-0.5,0-0.8,0c-0.7,0-1.3-0.1-1.8-0.3s-0.9-0.5-1.2-0.8s-0.6-0.8-0.7-1.2S469.6,95.2,469.6,94.6z M474.7,93.8    c0-0.2,0-0.4-0.1-0.5c-0.1-0.2-0.1-0.3-0.2-0.5c-0.1-0.1-0.2-0.2-0.4-0.3c-0.2-0.1-0.4-0.1-0.6-0.1c-0.2,0-0.4,0-0.6,0.1    s-0.3,0.2-0.4,0.3c-0.1,0.1-0.2,0.3-0.3,0.5c-0.1,0.2-0.1,0.4-0.1,0.5H474.7z"/>
		<path class="st15" d="M478.1,91.1c0.4-0.1,0.8-0.2,1.4-0.3c0.6-0.1,1.2-0.1,1.8-0.1c0.6,0,1.2,0.1,1.6,0.3c0.4,0.2,0.8,0.4,1,0.7    c0.2,0.3,0.4,0.7,0.5,1.1c0.1,0.4,0.2,0.9,0.2,1.4v4.2h-2.1v-4c0-0.7-0.1-1.2-0.3-1.5c-0.2-0.3-0.5-0.4-1-0.4c-0.2,0-0.3,0-0.5,0    c-0.2,0-0.3,0-0.5,0v5.8h-2.1V91.1z"/>
		<path class="st15" d="M492.9,98.1c-0.2,0.1-0.4,0.1-0.7,0.2s-0.5,0.1-0.8,0.1c-0.3,0-0.5,0.1-0.8,0.1c-0.3,0-0.6,0-0.8,0    c-0.6,0-1.2-0.1-1.7-0.3c-0.5-0.2-0.9-0.4-1.2-0.8c-0.3-0.3-0.6-0.7-0.8-1.2c-0.2-0.5-0.3-1-0.3-1.6c0-0.6,0.1-1.2,0.2-1.7    c0.2-0.5,0.4-0.9,0.7-1.3s0.6-0.6,1.1-0.8s0.9-0.3,1.4-0.3c0.3,0,0.6,0,0.8,0.1c0.2,0.1,0.5,0.1,0.7,0.2v-3.4l2.1-0.3V98.1z     M488,94.5c0,0.7,0.1,1.2,0.4,1.6c0.3,0.4,0.7,0.6,1.3,0.6c0.2,0,0.4,0,0.5,0c0.2,0,0.3,0,0.4,0v-3.9c-0.1-0.1-0.3-0.2-0.5-0.2    c-0.2-0.1-0.4-0.1-0.7-0.1C488.5,92.5,488,93.1,488,94.5z"/>
		<path class="st15" d="M497.3,90.6c0.6,0,1.2,0.1,1.6,0.2c0.4,0.1,0.8,0.3,1,0.6c0.3,0.3,0.4,0.6,0.5,1c0.1,0.4,0.2,0.8,0.2,1.3    v4.4c-0.3,0.1-0.7,0.1-1.3,0.2c-0.5,0.1-1.2,0.1-2,0.1c-0.5,0-0.9,0-1.3-0.1c-0.4-0.1-0.7-0.2-1-0.4c-0.3-0.2-0.5-0.5-0.7-0.8    c-0.2-0.3-0.2-0.7-0.2-1.2c0-0.4,0.1-0.8,0.3-1.1s0.4-0.5,0.7-0.7c0.3-0.2,0.6-0.3,1-0.4c0.4-0.1,0.8-0.1,1.2-0.1    c0.3,0,0.5,0,0.7,0s0.4,0.1,0.5,0.1v-0.2c0-0.4-0.1-0.7-0.3-0.9c-0.2-0.2-0.6-0.3-1.1-0.3c-0.4,0-0.7,0-1.1,0.1    c-0.4,0.1-0.7,0.1-0.9,0.2l-0.3-1.7c0.1,0,0.3-0.1,0.5-0.1s0.4-0.1,0.6-0.1c0.2,0,0.5-0.1,0.7-0.1S497,90.6,497.3,90.6z     M497.4,96.8c0.2,0,0.4,0,0.6,0c0.2,0,0.3,0,0.5,0v-1.6c-0.1,0-0.2,0-0.4-0.1c-0.2,0-0.3,0-0.5,0c-0.2,0-0.4,0-0.6,0    c-0.2,0-0.3,0.1-0.5,0.1c-0.1,0.1-0.2,0.2-0.3,0.3c-0.1,0.1-0.1,0.3-0.1,0.4c0,0.3,0.1,0.6,0.3,0.7    C496.7,96.8,497.1,96.8,497.4,96.8z"/>
		<path class="st15" d="M504.4,96.8c0.4,0,0.7,0,0.8-0.1c0.2-0.1,0.2-0.2,0.2-0.4c0-0.2-0.1-0.3-0.3-0.5c-0.2-0.1-0.5-0.3-1-0.4    c-0.3-0.1-0.6-0.3-0.9-0.4c-0.3-0.1-0.5-0.3-0.7-0.5c-0.2-0.2-0.3-0.4-0.4-0.7c-0.1-0.3-0.2-0.6-0.2-0.9c0-0.7,0.3-1.3,0.8-1.7    c0.5-0.4,1.2-0.6,2.2-0.6c0.5,0,0.9,0,1.3,0.1s0.8,0.2,1,0.3l-0.4,1.7c-0.2-0.1-0.5-0.2-0.8-0.2c-0.3-0.1-0.6-0.1-1-0.1    c-0.7,0-1,0.2-1,0.6c0,0.1,0,0.2,0,0.2c0,0.1,0.1,0.1,0.2,0.2c0.1,0.1,0.2,0.1,0.4,0.2c0.1,0.1,0.3,0.2,0.6,0.2    c0.5,0.2,0.9,0.3,1.2,0.5c0.3,0.2,0.5,0.4,0.7,0.5c0.2,0.2,0.3,0.4,0.4,0.6c0.1,0.2,0.1,0.5,0.1,0.8c0,0.7-0.3,1.3-0.8,1.7    c-0.6,0.4-1.3,0.6-2.4,0.6c-0.7,0-1.2-0.1-1.7-0.2c-0.4-0.1-0.8-0.2-0.9-0.3l0.4-1.7c0.4,0.1,0.7,0.3,1.1,0.3    C503.6,96.8,504,96.8,504.4,96.8z"/>
		<path class="st15" d="M466.5,109.5c0,0.6-0.1,1.1-0.2,1.6c-0.1,0.5-0.4,0.9-0.6,1.2s-0.6,0.6-1,0.8s-0.9,0.3-1.4,0.3    c-0.3,0-0.6,0-0.8-0.1s-0.5-0.1-0.7-0.2v2.8h-2.1V106c0.2-0.1,0.4-0.1,0.7-0.2c0.2-0.1,0.5-0.1,0.8-0.1c0.3,0,0.5-0.1,0.8-0.1    c0.3,0,0.6,0,0.8,0c0.6,0,1.2,0.1,1.7,0.3c0.5,0.2,0.9,0.4,1.2,0.8c0.3,0.3,0.6,0.8,0.8,1.2C466.4,108.4,466.5,108.9,466.5,109.5z     M464.3,109.6c0-0.7-0.1-1.2-0.4-1.6s-0.7-0.6-1.3-0.6c-0.2,0-0.4,0-0.5,0c-0.2,0-0.3,0-0.4,0v3.8c0.1,0.1,0.3,0.2,0.5,0.2    c0.2,0.1,0.4,0.1,0.7,0.1C463.8,111.6,464.3,110.9,464.3,109.6z"/>
		<path class="st15" d="M474.9,109.5c0,0.6-0.1,1.1-0.3,1.6s-0.4,0.9-0.7,1.3c-0.3,0.3-0.7,0.6-1.2,0.8c-0.5,0.2-1,0.3-1.5,0.3    c-0.6,0-1.1-0.1-1.5-0.3c-0.5-0.2-0.8-0.5-1.2-0.8c-0.3-0.3-0.6-0.8-0.8-1.3c-0.2-0.5-0.3-1-0.3-1.6c0-0.6,0.1-1.1,0.3-1.6    c0.2-0.5,0.4-0.9,0.8-1.2c0.3-0.3,0.7-0.6,1.2-0.8s0.9-0.3,1.5-0.3c0.5,0,1,0.1,1.5,0.3s0.8,0.5,1.2,0.8c0.3,0.3,0.6,0.8,0.8,1.2    C474.8,108.4,474.9,108.9,474.9,109.5z M472.7,109.5c0-0.7-0.1-1.2-0.4-1.6c-0.3-0.4-0.6-0.6-1.1-0.6c-0.5,0-0.9,0.2-1.1,0.6    c-0.3,0.4-0.4,0.9-0.4,1.6s0.1,1.2,0.4,1.6c0.3,0.4,0.6,0.6,1.1,0.6c0.5,0,0.9-0.2,1.1-0.6C472.6,110.7,472.7,110.1,472.7,109.5z"/>
		<path class="st15" d="M480.8,107.6c-0.2,0-0.4-0.1-0.7-0.2c-0.3-0.1-0.5-0.1-0.8-0.1c-0.1,0-0.3,0-0.5,0c-0.2,0-0.3,0.1-0.4,0.1    v5.8h-2.1v-7.1c0.4-0.1,0.8-0.3,1.4-0.4c0.5-0.1,1.1-0.2,1.7-0.2c0.1,0,0.3,0,0.4,0c0.2,0,0.3,0,0.5,0.1c0.2,0,0.3,0.1,0.5,0.1    c0.2,0,0.3,0.1,0.4,0.1L480.8,107.6z"/>
		<path class="st15" d="M489.3,109.3c0-0.7-0.1-1.2-0.3-1.5s-0.5-0.4-0.9-0.4c-0.1,0-0.3,0-0.4,0c-0.1,0-0.3,0-0.4,0v5.8h-2.1V106    c0.2,0,0.4-0.1,0.6-0.2c0.2-0.1,0.5-0.1,0.8-0.1c0.3,0,0.6-0.1,0.8-0.1c0.3,0,0.6,0,0.8,0c0.5,0,1,0.1,1.3,0.2s0.6,0.3,0.8,0.5    c0.3-0.2,0.7-0.4,1.1-0.5s0.8-0.2,1.1-0.2c0.6,0,1.1,0.1,1.5,0.3c0.4,0.2,0.7,0.4,0.9,0.7c0.2,0.3,0.4,0.7,0.5,1.1    s0.1,0.9,0.1,1.4v4.2h-2.1v-4c0-0.7-0.1-1.2-0.3-1.5c-0.2-0.3-0.5-0.4-0.9-0.4c-0.1,0-0.3,0-0.5,0.1c-0.2,0.1-0.4,0.1-0.5,0.2    c0.1,0.2,0.1,0.5,0.1,0.7c0,0.2,0,0.5,0,0.8v4.1h-2.1V109.3z"/>
		<path class="st15" d="M496.9,109.6c0-0.7,0.1-1.3,0.3-1.8c0.2-0.5,0.5-0.9,0.8-1.3s0.7-0.6,1.2-0.8c0.4-0.2,0.9-0.3,1.3-0.3    c1.1,0,1.9,0.3,2.5,1s0.9,1.6,0.9,2.9c0,0.1,0,0.3,0,0.4s0,0.3,0,0.4h-4.8c0,0.4,0.3,0.8,0.6,1c0.4,0.3,0.8,0.4,1.5,0.4    c0.4,0,0.8,0,1.2-0.1c0.4-0.1,0.7-0.2,0.9-0.3l0.3,1.7c-0.1,0.1-0.3,0.1-0.5,0.2c-0.2,0.1-0.4,0.1-0.6,0.2c-0.2,0-0.5,0.1-0.8,0.1    c-0.3,0-0.5,0-0.8,0c-0.7,0-1.3-0.1-1.8-0.3s-0.9-0.5-1.2-0.8s-0.6-0.8-0.7-1.2S496.9,110.1,496.9,109.6z M502.6,104l-0.8,0.9    l-1.4-1.1L499,105l-0.8-0.9l2.3-2L502.6,104z M501.9,108.7c0-0.2,0-0.4-0.1-0.5c-0.1-0.2-0.1-0.3-0.2-0.5    c-0.1-0.1-0.2-0.2-0.4-0.3c-0.2-0.1-0.4-0.1-0.6-0.1c-0.2,0-0.4,0-0.6,0.1s-0.3,0.2-0.4,0.3c-0.1,0.1-0.2,0.3-0.3,0.5    c-0.1,0.2-0.1,0.4-0.1,0.5H501.9z"/>
		<path class="st15" d="M507.5,111.7c0.4,0,0.7,0,0.8-0.1c0.2-0.1,0.2-0.2,0.2-0.4c0-0.2-0.1-0.3-0.3-0.5c-0.2-0.1-0.5-0.3-1-0.4    c-0.3-0.1-0.6-0.3-0.9-0.4c-0.3-0.1-0.5-0.3-0.7-0.5c-0.2-0.2-0.3-0.4-0.4-0.7c-0.1-0.3-0.2-0.6-0.2-0.9c0-0.7,0.3-1.3,0.8-1.7    c0.5-0.4,1.2-0.6,2.2-0.6c0.5,0,0.9,0,1.3,0.1s0.8,0.2,1,0.3l-0.4,1.7c-0.2-0.1-0.5-0.2-0.8-0.2c-0.3-0.1-0.6-0.1-1-0.1    c-0.7,0-1,0.2-1,0.6c0,0.1,0,0.2,0,0.2c0,0.1,0.1,0.1,0.2,0.2c0.1,0.1,0.2,0.1,0.4,0.2c0.1,0.1,0.3,0.2,0.6,0.2    c0.5,0.2,0.9,0.3,1.2,0.5c0.3,0.2,0.5,0.4,0.7,0.5c0.2,0.2,0.3,0.4,0.4,0.6c0.1,0.2,0.1,0.5,0.1,0.8c0,0.7-0.3,1.3-0.8,1.7    c-0.6,0.4-1.3,0.6-2.4,0.6c-0.7,0-1.2-0.1-1.7-0.2c-0.4-0.1-0.8-0.2-0.9-0.3l0.4-1.7c0.4,0.1,0.7,0.3,1.1,0.3    C506.7,111.7,507.1,111.7,507.5,111.7z"/>
	</g>
	<g>
		<rect x="22.7" y="179" class="st16" width="184.9" height="12.8"/>
	</g>
	<g>
		<rect x="207.6" y="179" class="st26" width="184.9" height="12.8"/>
	</g>
	<g>
		<rect x="392.4" y="179" class="st32" width="184.9" height="12.8"/>
	</g>
	<g>
		<g>
			<path class="st16" d="M115.1,140.8c-0.3,0-0.5-0.2-0.5-0.5v-2c0-0.3,0.2-0.5,0.5-0.5s0.5,0.2,0.5,0.5v2     C115.6,140.6,115.4,140.8,115.1,140.8z"/>
		</g>
		<g>
			<path class="st16" d="M115.1,174.7c-0.3,0-0.5-0.2-0.5-0.5V170c0-0.3,0.2-0.5,0.5-0.5s0.5,0.2,0.5,0.5v4.2     C115.6,174.5,115.4,174.7,115.1,174.7z M115.1,166.3c-0.3,0-0.5-0.2-0.5-0.5v-4.2c0-0.3,0.2-0.5,0.5-0.5s0.5,0.2,0.5,0.5v4.2     C115.6,166,115.4,166.3,115.1,166.3z M115.1,157.8c-0.3,0-0.5-0.2-0.5-0.5v-4.2c0-0.3,0.2-0.5,0.5-0.5s0.5,0.2,0.5,0.5v4.2     C115.6,157.6,115.4,157.8,115.1,157.8z M115.1,149.3c-0.3,0-0.5-0.2-0.5-0.5v-4.2c0-0.3,0.2-0.5,0.5-0.5s0.5,0.2,0.5,0.5v4.2     C115.6,149.1,115.4,149.3,115.1,149.3z"/>
		</g>
		<g>
			<path class="st16" d="M115.1,181c-0.3,0-0.5-0.2-0.5-0.5v-2c0-0.3,0.2-0.5,0.5-0.5s0.5,0.2,0.5,0.5v2     C115.6,180.7,115.4,181,115.1,181z"/>
		</g>
	</g>
	<g>
		<g>
			<path class="st26" d="M300,140.8c-0.3,0-0.5-0.2-0.5-0.5v-2c0-0.3,0.2-0.5,0.5-0.5s0.5,0.2,0.5,0.5v2     C300.5,140.6,300.3,140.8,300,140.8z"/>
		</g>
		<g>
			<path class="st26" d="M300,174.7c-0.3,0-0.5-0.2-0.5-0.5V170c0-0.3,0.2-0.5,0.5-0.5s0.5,0.2,0.5,0.5v4.2     C300.5,174.5,300.3,174.7,300,174.7z M300,166.3c-0.3,0-0.5-0.2-0.5-0.5v-4.2c0-0.3,0.2-0.5,0.5-0.5s0.5,0.2,0.5,0.5v4.2     C300.5,166,300.3,166.3,300,166.3z M300,157.8c-0.3,0-0.5-0.2-0.5-0.5v-4.2c0-0.3,0.2-0.5,0.5-0.5s0.5,0.2,0.5,0.5v4.2     C300.5,157.6,300.3,157.8,300,157.8z M300,149.3c-0.3,0-0.5-0.2-0.5-0.5v-4.2c0-0.3,0.2-0.5,0.5-0.5s0.5,0.2,0.5,0.5v4.2     C300.5,149.1,300.3,149.3,300,149.3z"/>
		</g>
		<g>
			<path class="st26" d="M300,181c-0.3,0-0.5-0.2-0.5-0.5v-2c0-0.3,0.2-0.5,0.5-0.5s0.5,0.2,0.5,0.5v2     C300.5,180.7,300.3,181,300,181z"/>
		</g>
	</g>
	<g>
		<g>
			<path class="st32" d="M484.9,140.8c-0.3,0-0.5-0.2-0.5-0.5v-2c0-0.3,0.2-0.5,0.5-0.5s0.5,0.2,0.5,0.5v2     C485.4,140.6,485.2,140.8,484.9,140.8z"/>
		</g>
		<g>
			<path class="st32" d="M484.9,174.7c-0.3,0-0.5-0.2-0.5-0.5V170c0-0.3,0.2-0.5,0.5-0.5s0.5,0.2,0.5,0.5v4.2     C485.4,174.5,485.2,174.7,484.9,174.7z M484.9,166.3c-0.3,0-0.5-0.2-0.5-0.5v-4.2c0-0.3,0.2-0.5,0.5-0.5s0.5,0.2,0.5,0.5v4.2     C485.4,166,485.2,166.3,484.9,166.3z M484.9,157.8c-0.3,0-0.5-0.2-0.5-0.5v-4.2c0-0.3,0.2-0.5,0.5-0.5s0.5,0.2,0.5,0.5v4.2     C485.4,157.6,485.2,157.8,484.9,157.8z M484.9,149.3c-0.3,0-0.5-0.2-0.5-0.5v-4.2c0-0.3,0.2-0.5,0.5-0.5s0.5,0.2,0.5,0.5v4.2     C485.4,149.1,485.2,149.3,484.9,149.3z"/>
		</g>
		<g>
			<path class="st32" d="M484.9,181c-0.3,0-0.5-0.2-0.5-0.5v-2c0-0.3,0.2-0.5,0.5-0.5s0.5,0.2,0.5,0.5v2     C485.4,180.7,485.2,181,484.9,181z"/>
		</g>
	</g>
	<g>
		<polygon class="st15" points="115.1,205.3 123,191.8 107.3,191.8   "/>
	</g>
	<g>
		<polygon class="st16" points="115.1,205.3 123,191.8 107.3,191.8   "/>
	</g>
	<g>
		<polygon class="st32" points="484.9,205.3 492.7,191.8 477,191.8   "/>
	</g>
	<g>
		<polygon class="st26" points="300,205.3 307.8,191.8 292.2,191.8   "/>
	</g>
</g>
</svg>